<svg width="220" height="221" viewBox="0 0 220 221" fill="none" xmlns="http://www.w3.org/2000/svg">
<g clip-path="url(#clip0_209_7165)" filter="url(#filter0_d_209_7165)">
<mask id="mask0_209_7165" style="mask-type:luminance" maskUnits="userSpaceOnUse" x="60" y="60" width="100" height="101">
<path fill-rule="evenodd" clip-rule="evenodd" d="M60 110.5C60 138.39 82.3855 161 110 161V161C137.614 161 160 138.39 160 110.5V110.5C160 82.6098 137.614 60 110 60V60C82.3855 60 60 82.6098 60 110.5" fill="white"/>
</mask>
<g mask="url(#mask0_209_7165)">
<path fill-rule="evenodd" clip-rule="evenodd" d="M110.733 162.655C82.3169 162.655 59.2812 139.389 59.2812 110.689C59.2812 81.9891 82.3169 58.7231 110.733 58.7231C139.149 58.7231 162.185 81.9891 162.185 110.689C162.185 139.389 139.149 162.655 110.733 162.655" fill="#FF33B6"/>
</g>
<mask id="mask1_209_7165" style="mask-type:luminance" maskUnits="userSpaceOnUse" x="60" y="60" width="100" height="101">
<path fill-rule="evenodd" clip-rule="evenodd" d="M60 110.5C60 138.39 82.3855 161 110 161V161C137.614 161 160 138.39 160 110.5V110.5C160 82.6098 137.614 60 110 60V60C82.3855 60 60 82.6098 60 110.5" fill="white"/>
</mask>
<g mask="url(#mask1_209_7165)">
<path fill-rule="evenodd" clip-rule="evenodd" d="M162.311 125.744L131.319 96.9072L119.571 92.4778L117.173 90.2574L115.623 90.8215L110.697 90.1455L102.675 99.7419L91.8711 132.907L127.371 164.941C127.371 164.941 141.031 166.805 152.836 151.048C164.642 135.292 162.311 125.744 162.311 125.744" fill="#E500AA"/>
</g>
<mask id="mask2_209_7165" style="mask-type:luminance" maskUnits="userSpaceOnUse" x="60" y="60" width="100" height="101">
<path fill-rule="evenodd" clip-rule="evenodd" d="M60 110.5C60 138.39 82.3855 161 110 161V161C137.614 161 160 138.39 160 110.5V110.5C160 82.6098 137.614 60 110 60V60C82.3855 60 60 82.6098 60 110.5" fill="white"/>
</mask>
<g mask="url(#mask2_209_7165)">
<path fill-rule="evenodd" clip-rule="evenodd" d="M136.952 113.615C136.952 128.869 124.709 141.235 109.606 141.235C94.5029 141.235 82.2599 128.869 82.2599 113.615C82.2599 98.3612 94.5029 85.9957 109.606 85.9957C124.709 85.9957 136.952 98.3612 136.952 113.615" fill="black"/>
</g>
<mask id="mask3_209_7165" style="mask-type:luminance" maskUnits="userSpaceOnUse" x="60" y="60" width="100" height="101">
<path fill-rule="evenodd" clip-rule="evenodd" d="M60 110.5C60 138.39 82.3855 161 110 161V161C137.614 161 160 138.39 160 110.5V110.5C160 82.6098 137.614 60 110 60V60C82.3855 60 60 82.6098 60 110.5" fill="white"/>
</mask>
<g mask="url(#mask3_209_7165)">
<path fill-rule="evenodd" clip-rule="evenodd" d="M131.526 113.971C131.526 126.184 121.724 136.085 109.631 136.085C97.5389 136.085 87.7362 126.184 87.7362 113.971C87.7362 101.758 97.5389 91.8571 109.631 91.8571C121.724 91.8571 131.526 101.758 131.526 113.971" fill="#FF00B1"/>
</g>
<mask id="mask4_209_7165" style="mask-type:luminance" maskUnits="userSpaceOnUse" x="60" y="60" width="100" height="101">
<path fill-rule="evenodd" clip-rule="evenodd" d="M60 110.5C60 138.39 82.3855 161 110 161V161C137.614 161 160 138.39 160 110.5V110.5C160 82.6098 137.614 60 110 60V60C82.3855 60 60 82.6098 60 110.5" fill="white"/>
</mask>
<g mask="url(#mask4_209_7165)">
<path fill-rule="evenodd" clip-rule="evenodd" d="M88.7772 121.336C88.8253 121.482 88.8789 121.628 88.9376 121.774L88.9752 121.871C89.1568 122.33 89.3388 122.741 89.5259 123.124C89.2531 122.541 89.0018 121.946 88.7772 121.336M89.939 123.94L89.9335 123.945C89.9711 124.016 90.0082 124.086 90.0513 124.156C90.0137 124.08 89.9761 124.01 89.939 123.94M90.3983 124.783C92.1795 127.878 94.6667 130.488 97.6836 132.411V132.406C94.6988 130.488 92.1955 127.873 90.3983 124.783M98.3725 132.827L98.367 132.832C98.8484 133.124 99.3564 133.4 99.929 133.681L100.138 133.778C100.212 133.805 100.282 133.832 100.351 133.864C99.6723 133.556 99.0144 133.211 98.3725 132.827M114.945 91.7199L114.881 91.7037C114.779 91.6768 114.672 91.6551 114.57 91.6333C114.747 91.6713 114.918 91.7143 115.094 91.763C115.046 91.7468 114.993 91.7306 114.945 91.7199M126.534 99.0348C126.497 98.9913 126.465 98.9538 126.428 98.9103C126.374 98.8455 126.32 98.7806 126.262 98.7213C126.235 98.6945 126.214 98.662 126.181 98.6348C126.331 98.8024 126.476 98.97 126.615 99.1427C126.588 99.1048 126.561 99.0724 126.534 99.0348M124.363 96.7873C124.331 96.7549 124.299 96.7281 124.262 96.7012C124.513 96.9225 124.759 97.1494 125 97.3819C124.796 97.1819 124.582 96.9818 124.363 96.7873M122.342 95.1503C122.251 95.0748 122.155 95.01 122.059 94.9452C121.529 94.5831 121.043 94.2751 120.566 93.9996C120.524 93.9783 120.486 93.951 120.443 93.9297C120.342 93.87 120.24 93.8162 120.138 93.7676C120.277 93.8431 120.422 93.9241 120.561 94.0107C121.165 94.3562 121.749 94.7345 122.315 95.1397C122.369 95.1721 122.417 95.2152 122.465 95.2476C122.423 95.2152 122.385 95.1828 122.342 95.1503M129.59 103.795C129.547 103.708 129.51 103.621 129.462 103.54C129.52 103.659 129.579 103.778 129.633 103.897C129.622 103.865 129.606 103.827 129.59 103.795M129.103 102.833L129.097 102.838C129.226 103.07 129.344 103.303 129.461 103.54C129.349 103.303 129.231 103.065 129.103 102.833M127.076 99.71C127.665 100.477 128.21 101.287 128.702 102.13L128.708 102.125C128.221 101.282 127.675 100.477 127.076 99.71M130.397 105.723C130.338 105.572 130.285 105.42 130.22 105.264C130.285 105.436 130.349 105.604 130.413 105.777C130.408 105.761 130.402 105.739 130.397 105.723M130.932 107.381C130.878 107.192 130.819 107.003 130.761 106.814C130.867 107.165 130.969 107.522 131.06 107.879C131.022 107.711 130.98 107.549 130.932 107.381M88.7772 121.336C88.8253 121.482 88.8789 121.628 88.9376 121.774L88.9752 121.871C89.1568 122.33 89.3388 122.741 89.5259 123.124C89.2531 122.541 89.0018 121.946 88.7772 121.336M89.939 123.94L89.9335 123.945C89.9711 124.016 90.0082 124.086 90.0513 124.156C90.0137 124.08 89.9761 124.01 89.939 123.94M90.3983 124.783C92.1795 127.878 94.6667 130.488 97.6836 132.411V132.406C94.6988 130.488 92.1955 127.873 90.3983 124.783M98.3725 132.827L98.367 132.832C98.8484 133.124 99.3564 133.4 99.929 133.681L100.138 133.778C100.212 133.805 100.282 133.832 100.351 133.864C99.6723 133.556 99.0144 133.211 98.3725 132.827M114.945 91.7199L114.881 91.7037C114.779 91.6768 114.672 91.6551 114.57 91.6333C114.747 91.6713 114.918 91.7143 115.094 91.763C115.046 91.7468 114.993 91.7306 114.945 91.7199M126.534 99.0348C126.497 98.9913 126.465 98.9538 126.428 98.9103C126.374 98.8455 126.32 98.7806 126.262 98.7213C126.235 98.6945 126.214 98.662 126.181 98.6348C126.331 98.8024 126.476 98.97 126.615 99.1427C126.588 99.1048 126.561 99.0724 126.534 99.0348M124.363 96.7873C124.331 96.7549 124.299 96.7281 124.262 96.7012C124.513 96.9225 124.759 97.1494 125 97.3819C124.796 97.1819 124.582 96.9818 124.363 96.7873M122.342 95.1503C122.251 95.0748 122.155 95.01 122.059 94.9452C121.529 94.5831 121.043 94.2751 120.566 93.9996C120.524 93.9783 120.486 93.951 120.443 93.9297C120.342 93.87 120.24 93.8162 120.138 93.7676C120.277 93.8431 120.422 93.9241 120.561 94.0107C121.165 94.3562 121.749 94.7345 122.315 95.1397C122.369 95.1721 122.417 95.2152 122.465 95.2476C122.423 95.2152 122.385 95.1828 122.342 95.1503M129.59 103.795C129.547 103.708 129.51 103.621 129.462 103.54C129.52 103.659 129.579 103.778 129.633 103.897C129.622 103.865 129.606 103.827 129.59 103.795M129.103 102.833L129.097 102.838C129.226 103.07 129.344 103.303 129.461 103.54C129.349 103.303 129.231 103.065 129.103 102.833M127.076 99.71C127.665 100.477 128.21 101.287 128.702 102.13L128.708 102.125C128.221 101.282 127.675 100.477 127.076 99.71M130.397 105.723C130.338 105.572 130.285 105.42 130.22 105.264C130.285 105.436 130.349 105.604 130.413 105.777C130.408 105.761 130.402 105.739 130.397 105.723M130.932 107.381C130.878 107.192 130.819 107.003 130.761 106.814C130.867 107.165 130.969 107.522 131.06 107.879C131.022 107.711 130.98 107.549 130.932 107.381M88.7772 121.336C88.8253 121.482 88.8789 121.628 88.9376 121.774L88.9752 121.871C89.1568 122.33 89.3388 122.741 89.5259 123.124C89.2531 122.541 89.0018 121.946 88.7772 121.336M89.939 123.94L89.9335 123.945C89.9711 124.016 90.0082 124.086 90.0513 124.156C90.0137 124.08 89.9761 124.01 89.939 123.94M90.3983 124.783C92.1795 127.878 94.6667 130.488 97.6836 132.411V132.406C94.6988 130.488 92.1955 127.873 90.3983 124.783M98.3725 132.827L98.367 132.832C98.8484 133.124 99.3564 133.4 99.929 133.681L100.138 133.778C100.212 133.805 100.282 133.832 100.351 133.864C99.6723 133.556 99.0144 133.211 98.3725 132.827M114.945 91.7199L114.881 91.7037C114.779 91.6768 114.672 91.6551 114.57 91.6333C114.747 91.6713 114.918 91.7143 115.094 91.763C115.046 91.7468 114.993 91.7306 114.945 91.7199M122.342 95.1503C122.251 95.0748 122.155 95.01 122.059 94.9452C121.529 94.5831 121.043 94.2751 120.566 93.9996C120.524 93.9783 120.486 93.951 120.443 93.9297C120.342 93.87 120.24 93.8162 120.138 93.7676C120.277 93.8431 120.422 93.9241 120.561 94.0107C121.165 94.3562 121.749 94.7345 122.315 95.1397C122.369 95.1721 122.417 95.2152 122.465 95.2476C122.423 95.2152 122.385 95.1828 122.342 95.1503M126.534 99.0348C126.497 98.9913 126.465 98.9538 126.428 98.9103C126.374 98.8455 126.32 98.7806 126.262 98.7213C126.235 98.6945 126.214 98.662 126.181 98.6348C126.331 98.8024 126.476 98.97 126.615 99.1427C126.588 99.1048 126.561 99.0724 126.534 99.0348M124.363 96.7873C124.331 96.7549 124.299 96.7281 124.262 96.7012C124.513 96.9225 124.759 97.1494 125 97.3819C124.796 97.1819 124.582 96.9818 124.363 96.7873M129.59 103.795C129.547 103.708 129.51 103.621 129.462 103.54C129.52 103.659 129.579 103.778 129.633 103.897C129.622 103.865 129.606 103.827 129.59 103.795M129.103 102.833L129.097 102.838C129.226 103.07 129.344 103.303 129.461 103.54C129.349 103.303 129.231 103.065 129.103 102.833M127.076 99.71C127.665 100.477 128.21 101.287 128.702 102.13L128.708 102.125C128.221 101.282 127.675 100.477 127.076 99.71M130.397 105.723C130.338 105.572 130.285 105.42 130.22 105.264C130.285 105.436 130.349 105.604 130.413 105.777C130.408 105.761 130.402 105.739 130.397 105.723M130.932 107.381C130.878 107.192 130.819 107.003 130.761 106.814C130.867 107.165 130.969 107.522 131.06 107.879C131.022 107.711 130.98 107.549 130.932 107.381" fill="black"/>
</g>
<mask id="mask5_209_7165" style="mask-type:luminance" maskUnits="userSpaceOnUse" x="60" y="60" width="100" height="101">
<path fill-rule="evenodd" clip-rule="evenodd" d="M60 110.5C60 138.39 82.3855 161 110 161V161C137.614 161 160 138.39 160 110.5V110.5C160 82.6098 137.614 60 110 60V60C82.3855 60 60 82.6098 60 110.5" fill="white"/>
</mask>
<g mask="url(#mask5_209_7165)">
<path fill-rule="evenodd" clip-rule="evenodd" d="M87.9108 122.087L87.9429 122.179C87.9965 122.308 88.0446 122.433 88.0979 122.557C88.0391 122.4 87.975 122.243 87.9108 122.087M90.5899 127.073C91.5742 128.483 92.7081 129.774 93.9809 130.925C92.7186 129.764 91.5793 128.473 90.5899 127.073M98.8164 134.318C99.025 134.432 99.2391 134.545 99.4638 134.653C99.4849 134.664 99.5064 134.675 99.528 134.68C99.2924 134.561 99.0517 134.442 98.8164 134.318M122.657 94.0486C122.507 93.9458 122.357 93.843 122.213 93.7568C122.486 93.9351 122.759 94.1241 123.026 94.313C122.903 94.2213 122.78 94.1347 122.657 94.0486M123.025 94.313C123.48 94.6427 123.924 94.9886 124.357 95.3451C123.929 94.983 123.485 94.6371 123.025 94.313" fill="black"/>
</g>
<mask id="mask6_209_7165" style="mask-type:luminance" maskUnits="userSpaceOnUse" x="60" y="60" width="100" height="101">
<path fill-rule="evenodd" clip-rule="evenodd" d="M60 110.5C60 138.39 82.3855 161 110 161V161C137.614 161 160 138.39 160 110.5V110.5C160 82.6098 137.614 60 110 60V60C82.3855 60 60 82.6098 60 110.5" fill="white"/>
</mask>
<g mask="url(#mask6_209_7165)">
<path fill-rule="evenodd" clip-rule="evenodd" d="M89.0439 123.362L89.0447 123.361C89.0494 123.371 89.0537 123.381 89.0584 123.391C89.0537 123.381 89.0486 123.372 89.0439 123.362" fill="black"/>
</g>
<mask id="mask7_209_7165" style="mask-type:luminance" maskUnits="userSpaceOnUse" x="60" y="60" width="100" height="101">
<path fill-rule="evenodd" clip-rule="evenodd" d="M60 110.5C60 138.39 82.3855 161 110 161V161C137.614 161 160 138.39 160 110.5V110.5C160 82.6098 137.614 60 110 60V60C82.3855 60 60 82.6098 60 110.5" fill="white"/>
</mask>
<g mask="url(#mask7_209_7165)">
<path fill-rule="evenodd" clip-rule="evenodd" d="M88.1082 121.087C88.1685 121.255 88.2327 121.42 88.2949 121.586C88.2295 121.421 88.1654 121.255 88.1082 121.087" fill="black"/>
</g>
<mask id="mask8_209_7165" style="mask-type:luminance" maskUnits="userSpaceOnUse" x="60" y="60" width="100" height="101">
<path fill-rule="evenodd" clip-rule="evenodd" d="M60 110.5C60 138.39 82.3855 161 110 161V161C137.614 161 160 138.39 160 110.5V110.5C160 82.6098 137.614 60 110 60V60C82.3855 60 60 82.6098 60 110.5" fill="white"/>
</mask>
<g mask="url(#mask8_209_7165)">
<path fill-rule="evenodd" clip-rule="evenodd" d="M86.98 116.101C86.94 115.765 86.9115 115.424 86.888 115.083C86.9126 115.424 86.9381 115.765 86.98 116.101" fill="black"/>
</g>
<mask id="mask9_209_7165" style="mask-type:luminance" maskUnits="userSpaceOnUse" x="60" y="60" width="100" height="101">
<path fill-rule="evenodd" clip-rule="evenodd" d="M60 110.5C60 138.39 82.3855 161 110 161V161C137.614 161 160 138.39 160 110.5V110.5C160 82.6098 137.614 60 110 60V60C82.3855 60 60 82.6098 60 110.5" fill="white"/>
</mask>
<g mask="url(#mask9_209_7165)">
<path fill-rule="evenodd" clip-rule="evenodd" d="M86.8887 115.083C86.8746 114.887 86.8629 114.692 86.8543 114.495C86.8625 114.691 86.8754 114.887 86.8887 115.083" fill="black"/>
</g>
<mask id="mask10_209_7165" style="mask-type:luminance" maskUnits="userSpaceOnUse" x="60" y="60" width="100" height="101">
<path fill-rule="evenodd" clip-rule="evenodd" d="M60 110.5C60 138.39 82.3855 161 110 161V161C137.614 161 160 138.39 160 110.5V110.5C160 82.6098 137.614 60 110 60V60C82.3855 60 60 82.6098 60 110.5" fill="white"/>
</mask>
<g mask="url(#mask10_209_7165)">
<path fill-rule="evenodd" clip-rule="evenodd" d="M86.851 114.458L86.8521 114.457C86.8525 114.47 86.8525 114.482 86.8529 114.495C86.8525 114.482 86.8514 114.47 86.851 114.458" fill="black"/>
</g>
<mask id="mask11_209_7165" style="mask-type:luminance" maskUnits="userSpaceOnUse" x="60" y="60" width="100" height="101">
<path fill-rule="evenodd" clip-rule="evenodd" d="M60 110.5C60 138.39 82.3855 161 110 161V161C137.614 161 160 138.39 160 110.5V110.5C160 82.6098 137.614 60 110 60V60C82.3855 60 60 82.6098 60 110.5" fill="white"/>
</mask>
<g mask="url(#mask11_209_7165)">
<path fill-rule="evenodd" clip-rule="evenodd" d="M109.563 139.947C95.1105 139.947 83.3535 128.073 83.3535 113.475C83.3535 98.8779 95.1105 87.0034 109.563 87.0034C124.016 87.0034 135.773 98.8779 135.773 113.475C135.773 128.073 124.016 139.947 109.563 139.947M101.695 79.3047C101.695 74.9235 105.225 71.3579 109.563 71.3579C113.902 71.3579 117.432 74.9235 117.432 79.3047C117.432 82.1627 115.913 84.7935 113.463 86.2035C112.735 86.0956 112.003 86.0201 111.259 85.9766V82.6814H115.18V81.7789H112.815V75.7501H106.311V81.7789H103.947V82.6814H107.868V85.9766C107.13 86.0201 106.397 86.0956 105.669 86.2035C103.214 84.7935 101.695 82.1679 101.695 79.3047M129.771 94.9882L132.055 92.6867L132.873 93.5133L135.708 90.6446L132.429 87.3382L129.594 90.2018L130.413 91.0284L128.145 93.3243C124.54 89.9263 120.014 87.5003 114.992 86.4741C117.185 84.783 118.501 82.1412 118.501 79.3049C118.501 74.3292 114.489 70.2773 109.563 70.2773C104.636 70.2773 100.624 74.3292 100.624 79.3049C100.624 82.1412 101.94 84.7775 104.133 86.4741C91.6812 89.0238 82.2832 100.164 82.2832 113.475C82.2832 128.667 94.5216 141.028 109.563 141.028C124.604 141.028 136.842 128.667 136.842 113.475C136.842 106.366 134.162 99.8773 129.771 94.9882" fill="black"/>
</g>
<mask id="mask12_209_7165" style="mask-type:luminance" maskUnits="userSpaceOnUse" x="60" y="60" width="100" height="101">
<path fill-rule="evenodd" clip-rule="evenodd" d="M60 110.5C60 138.39 82.3855 161 110 161V161C137.614 161 160 138.39 160 110.5V110.5C160 82.6098 137.614 60 110 60V60C82.3855 60 60 82.6098 60 110.5" fill="white"/>
</mask>
<g mask="url(#mask12_209_7165)">
<path fill-rule="evenodd" clip-rule="evenodd" d="M120.566 93.9999L120.561 94.0106C120.422 93.9244 120.278 93.8434 120.139 93.7675C120.24 93.8161 120.342 93.8703 120.444 93.9296C120.486 93.9513 120.524 93.9782 120.566 93.9999" fill="black"/>
</g>
<mask id="mask13_209_7165" style="mask-type:luminance" maskUnits="userSpaceOnUse" x="60" y="60" width="100" height="101">
<path fill-rule="evenodd" clip-rule="evenodd" d="M60 110.5C60 138.39 82.3855 161 110 161V161C137.614 161 160 138.39 160 110.5V110.5C160 82.6098 137.614 60 110 60V60C82.3855 60 60 82.6098 60 110.5" fill="white"/>
</mask>
<g mask="url(#mask13_209_7165)">
<path fill-rule="evenodd" clip-rule="evenodd" d="M87.9108 122.087L87.9429 122.179C87.9965 122.308 88.0446 122.433 88.0979 122.557C88.0391 122.4 87.975 122.243 87.9108 122.087M90.5899 127.073C91.5742 128.483 92.7081 129.774 93.9809 130.925C92.7186 129.764 91.5793 128.473 90.5899 127.073M98.8164 134.318C99.025 134.432 99.2391 134.545 99.4638 134.653C99.4849 134.664 99.5064 134.675 99.528 134.68C99.2924 134.561 99.0517 134.442 98.8164 134.318M122.657 94.0486C122.507 93.9458 122.357 93.843 122.213 93.7568C122.486 93.9351 122.759 94.1241 123.026 94.313C122.903 94.2213 122.78 94.1347 122.657 94.0486M123.025 94.313C123.48 94.6427 123.924 94.9886 124.357 95.3451C123.929 94.983 123.485 94.6371 123.025 94.313" fill="black"/>
</g>
<mask id="mask14_209_7165" style="mask-type:luminance" maskUnits="userSpaceOnUse" x="60" y="60" width="100" height="101">
<path fill-rule="evenodd" clip-rule="evenodd" d="M60 110.5C60 138.39 82.3855 161 110 161V161C137.614 161 160 138.39 160 110.5V110.5C160 82.6098 137.614 60 110 60V60C82.3855 60 60 82.6098 60 110.5V110.5Z" fill="white"/>
</mask>
<g mask="url(#mask14_209_7165)">
<path fill-rule="evenodd" clip-rule="evenodd" d="M131.755 113.881C131.755 114.124 131.744 114.367 131.733 114.605C131.723 114.842 131.707 115.08 131.685 115.318C131.669 115.556 131.642 115.793 131.616 116.031C131.605 116.15 131.589 116.263 131.573 116.382C131.53 116.739 131.476 117.09 131.412 117.441C131.348 117.808 131.273 118.17 131.188 118.532C131.15 118.716 131.107 118.894 131.059 119.073C130.995 119.326 130.926 119.575 130.851 119.823C130.696 120.358 130.519 120.887 130.321 121.406C130.236 121.644 130.144 121.876 130.043 122.109C129.963 122.309 129.877 122.508 129.786 122.708C129.695 122.919 129.599 123.124 129.498 123.33C129.299 123.735 129.091 124.14 128.866 124.534L125.732 122.703L125.33 123.405L128.454 125.231C128.444 125.253 128.433 125.269 128.422 125.285C128.31 125.469 128.198 125.647 128.074 125.826C127.957 126.009 127.834 126.193 127.711 126.371C127.433 126.766 127.144 127.155 126.839 127.533C126.743 127.651 126.646 127.776 126.545 127.889C126.433 128.03 126.315 128.17 126.192 128.305C126.074 128.44 125.956 128.575 125.828 128.711C125.726 128.829 125.62 128.943 125.507 129.056C125.347 129.224 125.186 129.386 125.02 129.548C124.919 129.651 124.812 129.753 124.705 129.85C124.469 130.077 124.229 130.293 123.977 130.51C123.742 130.715 123.501 130.915 123.261 131.104C122.945 131.352 122.629 131.59 122.308 131.817C122.148 131.936 121.982 132.049 121.816 132.157C121.624 132.287 121.431 132.416 121.233 132.535C121.041 132.66 120.843 132.779 120.645 132.892L118.901 129.845L118.206 130.25L119.944 133.286C119.757 133.389 119.564 133.486 119.377 133.578C119.238 133.648 119.099 133.719 118.96 133.783C118.821 133.848 118.682 133.913 118.537 133.978C118.361 134.059 118.179 134.14 117.997 134.21C117.837 134.28 117.671 134.345 117.505 134.404C117.35 134.469 117.189 134.529 117.029 134.588C116.81 134.669 116.585 134.745 116.366 134.815C116.227 134.864 116.088 134.907 115.948 134.945C115.788 134.999 115.633 135.042 115.472 135.085C115.323 135.128 115.168 135.172 115.018 135.209C114.713 135.285 114.408 135.361 114.103 135.42C113.948 135.458 113.793 135.485 113.638 135.512C113.488 135.545 113.344 135.571 113.194 135.593C112.969 135.631 112.75 135.669 112.525 135.696C112.338 135.723 112.151 135.744 111.964 135.766C111.744 135.788 111.525 135.809 111.306 135.825C111.081 135.847 110.862 135.858 110.637 135.869C110.413 135.879 110.188 135.89 109.963 135.89V132.146H109.161V135.89H109.123C108.947 135.89 108.77 135.885 108.594 135.874C108.337 135.863 108.075 135.847 107.813 135.825C107.636 135.815 107.46 135.798 107.283 135.777C107.091 135.755 106.898 135.733 106.706 135.712C106.47 135.679 106.235 135.647 106 135.604C105.807 135.571 105.615 135.539 105.422 135.501C105.294 135.48 105.17 135.452 105.047 135.426C104.887 135.393 104.732 135.361 104.577 135.323C104.347 135.274 104.122 135.215 103.898 135.156C103.561 135.069 103.229 134.972 102.892 134.864C102.672 134.793 102.458 134.723 102.239 134.642C102.02 134.567 101.806 134.485 101.592 134.399C101.1 134.216 100.613 134.005 100.137 133.778L99.9284 133.681C99.3562 133.4 98.8482 133.124 98.3664 132.832L98.3719 132.827L100.169 129.677L99.4736 129.272L97.6819 132.406V132.411C94.665 130.488 92.1778 127.878 90.3965 124.783C90.2791 124.578 90.1613 124.367 90.049 124.156C90.0063 124.086 89.9687 124.015 89.9312 123.946L89.9367 123.94L92.9053 122.211L92.5042 121.509L89.5731 123.216C89.5515 123.184 89.541 123.157 89.5249 123.124C89.3374 122.741 89.1558 122.33 88.9738 121.871L88.9363 121.774C88.8776 121.628 88.8239 121.482 88.7758 121.336C88.7386 121.25 88.701 121.158 88.6744 121.066C88.6208 120.931 88.5781 120.796 88.5351 120.661C88.2783 119.899 88.0646 119.126 87.8932 118.343C87.8666 118.224 87.84 118.105 87.8185 117.987C87.7597 117.711 87.7116 117.436 87.6635 117.155C87.5672 116.571 87.492 115.982 87.4439 115.382C87.4173 115.069 87.3958 114.75 87.3852 114.432C87.3746 114.248 87.3691 114.065 87.3691 113.881H91.1668V113.07H87.3691C87.3691 112.838 87.3797 112.606 87.3907 112.379C87.4012 112.168 87.4118 111.963 87.4278 111.752C87.4278 111.736 87.4333 111.714 87.4333 111.693C87.4494 111.466 87.4709 111.239 87.4975 111.012C87.5241 110.785 87.5511 110.558 87.5832 110.337C87.6204 110.061 87.6635 109.791 87.7116 109.521C87.7437 109.321 87.7809 109.121 87.829 108.921C87.856 108.781 87.8826 108.64 87.9147 108.505C87.9629 108.295 88.011 108.089 88.0646 107.878C88.1288 107.63 88.193 107.387 88.2678 107.144C88.332 106.923 88.4016 106.696 88.4764 106.474C88.5245 106.317 88.5781 106.155 88.6369 105.999C88.6905 105.842 88.7492 105.68 88.8079 105.529C88.9417 105.167 89.0862 104.816 89.2412 104.464C89.2842 104.362 89.3269 104.259 89.375 104.162C89.4607 103.967 89.5515 103.773 89.6478 103.584C89.7707 103.33 89.8991 103.076 90.0329 102.822L92.932 104.513L93.3331 103.816L90.4286 102.12C90.5731 101.871 90.723 101.628 90.8779 101.385C90.937 101.282 91.0063 101.185 91.076 101.082C91.7926 99.9909 92.6059 98.9647 93.4991 98.0136C93.6435 97.8678 93.7879 97.7168 93.9324 97.576C94.0928 97.4088 94.2588 97.2519 94.4243 97.0953C94.5742 96.9495 94.7292 96.8091 94.8846 96.6739C95.0235 96.5498 95.1625 96.4253 95.3069 96.3067C95.5104 96.1336 95.7136 95.9608 95.9222 95.8043C96.0451 95.7015 96.1684 95.6098 96.2913 95.5177C96.3875 95.4422 96.4893 95.3667 96.5856 95.2963C96.6709 95.2315 96.7621 95.1722 96.8474 95.1125C97.0134 94.9884 97.1844 94.8749 97.3558 94.7615C97.7034 94.529 98.0564 94.3077 98.4149 94.097L100.223 97.2574L100.918 96.8522L99.1155 93.6973C99.3347 93.5783 99.5539 93.4649 99.7734 93.357C99.9821 93.2542 100.196 93.1518 100.41 93.0545C101.004 92.779 101.619 92.5304 102.239 92.3141C102.389 92.2549 102.544 92.2062 102.694 92.1576C102.887 92.0928 103.084 92.0279 103.277 91.9738C103.485 91.909 103.694 91.8497 103.903 91.7955C104.111 91.7362 104.325 91.6876 104.539 91.639C104.86 91.5579 105.181 91.4931 105.502 91.4338C105.647 91.4065 105.791 91.3796 105.935 91.3579C106.117 91.3255 106.299 91.2986 106.481 91.2717C106.919 91.2069 107.364 91.1583 107.813 91.1259C107.829 91.1259 107.845 91.1203 107.856 91.1203C108.064 91.1041 108.273 91.0935 108.481 91.0824C108.706 91.0717 108.931 91.061 109.161 91.061V94.8046H109.963V91.061H110.033C110.156 91.061 110.284 91.0662 110.413 91.0772C110.562 91.0772 110.712 91.0879 110.856 91.0986C111.027 91.1041 111.193 91.1148 111.364 91.131C111.552 91.1421 111.744 91.1634 111.932 91.1852C111.985 91.1907 112.044 91.1958 112.098 91.2014C112.311 91.2231 112.525 91.2555 112.739 91.2879C112.867 91.3041 112.996 91.3204 113.124 91.3472C113.418 91.3903 113.707 91.4445 114.002 91.5093C114.189 91.5417 114.381 91.5848 114.568 91.6334C114.67 91.6552 114.777 91.6769 114.879 91.7038L114.943 91.72C114.991 91.7307 115.045 91.7469 115.093 91.7631C115.761 91.9307 116.419 92.1359 117.067 92.3738C117.238 92.4331 117.409 92.498 117.58 92.5735C117.617 92.579 117.655 92.5952 117.692 92.6169C117.863 92.6762 118.029 92.7466 118.195 92.8221C118.361 92.8869 118.527 92.9624 118.687 93.0383C118.741 93.0597 118.794 93.087 118.848 93.1138C118.96 93.1625 119.067 93.2111 119.179 93.2704C119.34 93.3459 119.5 93.4269 119.661 93.5135C119.73 93.5404 119.795 93.5783 119.859 93.6163L118.206 96.5012L118.901 96.9064L120.559 94.0104C120.42 93.9242 120.276 93.8432 120.137 93.7673C120.238 93.8159 120.34 93.8701 120.442 93.9294C120.485 93.9511 120.522 93.978 120.565 93.9997C121.041 94.2752 121.528 94.5832 122.057 94.9453C122.153 95.0101 122.25 95.0749 122.341 95.1504C123.763 96.1553 125.058 97.3278 126.181 98.635C126.213 98.6619 126.235 98.6943 126.261 98.7216C126.32 98.7809 126.373 98.8457 126.427 98.9106C126.465 98.9537 126.497 98.9916 126.534 99.0347C126.721 99.2565 126.898 99.4834 127.074 99.7103C127.673 100.477 128.219 101.282 128.706 102.125L128.7 102.13L125.812 103.816L126.213 104.513L129.096 102.838L129.101 102.833C129.23 103.065 129.348 103.303 129.46 103.54C129.508 103.621 129.546 103.708 129.588 103.795C129.604 103.827 129.62 103.865 129.631 103.897C129.695 104.021 129.749 104.14 129.797 104.259C129.947 104.594 130.091 104.929 130.22 105.264C130.284 105.42 130.337 105.572 130.396 105.723C130.401 105.739 130.407 105.761 130.412 105.777C130.476 105.945 130.535 106.117 130.589 106.29C130.653 106.463 130.706 106.642 130.76 106.814C130.818 107.003 130.878 107.193 130.931 107.382C130.979 107.549 131.022 107.711 131.059 107.878C131.134 108.149 131.198 108.419 131.252 108.689C131.311 108.959 131.364 109.235 131.412 109.51C131.423 109.564 131.434 109.613 131.439 109.661C131.466 109.813 131.492 109.964 131.508 110.11C131.552 110.385 131.589 110.661 131.616 110.936C131.632 111.05 131.648 111.169 131.653 111.288C131.696 111.725 131.728 112.168 131.744 112.617C131.744 112.676 131.749 112.741 131.749 112.8C131.755 112.892 131.755 112.979 131.755 113.07H127.957V113.881H131.755ZM132.788 112.136C132.783 111.979 132.772 111.822 132.761 111.671C132.75 111.471 132.729 111.271 132.708 111.071C132.697 110.958 132.686 110.844 132.67 110.731C132.644 110.472 132.606 110.218 132.568 109.964C132.552 109.823 132.531 109.688 132.504 109.553C132.462 109.283 132.414 109.013 132.355 108.743C132.328 108.597 132.296 108.446 132.259 108.3C132.226 108.133 132.189 107.965 132.146 107.803C132.087 107.565 132.023 107.327 131.959 107.09C131.852 106.706 131.734 106.323 131.606 105.945C131.547 105.761 131.483 105.582 131.419 105.399L131.403 105.35C131.28 105.015 131.146 104.675 131.001 104.334C130.857 103.994 130.707 103.659 130.552 103.33C130.466 103.146 130.376 102.962 130.279 102.784C130.194 102.617 130.108 102.449 130.017 102.282C129.98 102.195 129.932 102.114 129.884 102.033C129.835 101.947 129.792 101.866 129.744 101.785C129.605 101.536 129.461 101.299 129.311 101.055C129.167 100.812 129.017 100.574 128.851 100.342C128.749 100.191 128.648 100.04 128.541 99.8885C128.434 99.7316 128.322 99.575 128.204 99.4236C127.979 99.1212 127.749 98.824 127.514 98.5322C127.396 98.3864 127.273 98.246 127.15 98.1002C126.915 97.814 126.664 97.5384 126.401 97.268C126.273 97.1333 126.145 96.9981 126.011 96.8629C125.749 96.5929 125.481 96.3336 125.203 96.0849C125.134 96.0256 125.064 95.9608 124.995 95.896C124.925 95.8311 124.855 95.7663 124.786 95.7121C124.642 95.588 124.502 95.4639 124.358 95.3449C123.925 94.9883 123.481 94.6424 123.026 94.3132C122.759 94.1238 122.486 93.9349 122.213 93.7566C121.935 93.5728 121.651 93.4 121.368 93.2273C121.234 93.1407 121.095 93.0652 120.961 92.9897C120.528 92.7466 120.089 92.5141 119.646 92.2979C119.517 92.2331 119.383 92.1738 119.255 92.1145C119.18 92.0765 119.111 92.0441 119.036 92.0117C118.891 91.9413 118.741 91.8765 118.592 91.8172C117.474 91.3365 116.318 90.9475 115.142 90.6558L115.072 90.6396C114.938 90.6072 114.805 90.5748 114.671 90.5475C114.527 90.5151 114.388 90.4827 114.248 90.4558C113.484 90.2937 112.713 90.1747 111.938 90.0992C111.756 90.0775 111.569 90.0613 111.381 90.0506C111.349 90.0451 111.317 90.0399 111.291 90.0399C111.178 90.0289 111.066 90.0237 110.954 90.0182C110.488 89.9913 110.028 89.9751 109.563 89.9751C96.7309 89.9751 86.2949 100.515 86.2949 113.475C86.2949 113.816 86.3004 114.151 86.3164 114.48C86.3325 114.81 86.3485 115.134 86.3806 115.463C86.3806 115.512 86.3857 115.566 86.3967 115.62C86.4178 115.89 86.4448 116.166 86.482 116.436C86.5196 116.76 86.5677 117.079 86.6213 117.403C86.6534 117.598 86.6855 117.792 86.7282 117.987C86.7337 118.03 86.7442 118.073 86.7548 118.116C86.7924 118.311 86.83 118.5 86.8781 118.694C86.9262 118.921 86.9795 119.154 87.0386 119.381C87.0918 119.596 87.1509 119.807 87.2151 120.018C87.2417 120.126 87.2738 120.234 87.3059 120.342C87.3114 120.353 87.3114 120.364 87.3164 120.374C87.3916 120.617 87.4664 120.861 87.5521 121.098C87.6589 121.428 87.7767 121.752 87.9051 122.076L87.9102 122.087C87.9744 122.244 88.0386 122.4 88.0977 122.557C88.1082 122.579 88.1137 122.6 88.1243 122.616C88.199 122.795 88.2742 122.968 88.3544 123.14C88.4237 123.297 88.4934 123.448 88.563 123.594C88.6538 123.789 88.7446 123.978 88.8464 124.167C88.9321 124.334 89.0174 124.502 89.1086 124.669C89.2797 125.004 89.4667 125.328 89.6648 125.652C89.7611 125.814 89.8628 125.977 89.9642 126.133C90.1677 126.452 90.3763 126.766 90.59 127.074C91.5799 128.473 92.7192 129.764 93.9814 130.925C94.4041 131.304 94.8425 131.676 95.2918 132.033C95.5485 132.233 95.8108 132.427 96.0781 132.622C96.3403 132.811 96.6076 132.994 96.8804 133.173C97.1532 133.351 97.426 133.524 97.7043 133.691C97.9505 133.843 98.2018 133.989 98.464 134.129C98.5814 134.194 98.6992 134.253 98.8166 134.318C99.0523 134.442 99.293 134.561 99.5282 134.68C99.7744 134.793 100.015 134.912 100.261 135.02C100.507 135.128 100.753 135.231 101.005 135.334C101.235 135.425 101.459 135.512 101.689 135.593C101.898 135.669 102.101 135.744 102.31 135.809C102.748 135.955 103.187 136.084 103.631 136.203C104.102 136.328 104.578 136.441 105.059 136.533C105.246 136.571 105.433 136.609 105.626 136.636C105.76 136.663 105.888 136.684 106.027 136.7C106.412 136.765 106.803 136.814 107.188 136.852C107.263 136.857 107.338 136.868 107.413 136.873C107.562 136.89 107.712 136.9 107.862 136.911C108.012 136.922 108.161 136.933 108.306 136.938C108.413 136.949 108.52 136.955 108.621 136.955C108.723 136.96 108.825 136.965 108.932 136.965C109.146 136.971 109.354 136.976 109.563 136.976C122.395 136.976 132.831 126.436 132.831 113.475C132.831 113.027 132.82 112.579 132.788 112.136V112.136Z" fill="black"/>
</g>
<mask id="mask15_209_7165" style="mask-type:luminance" maskUnits="userSpaceOnUse" x="60" y="60" width="100" height="101">
<path fill-rule="evenodd" clip-rule="evenodd" d="M60 110.5C60 138.39 82.3855 161 110 161V161C137.614 161 160 138.39 160 110.5V110.5C160 82.6098 137.614 60 110 60V60C82.3855 60 60 82.6098 60 110.5" fill="white"/>
</mask>
<g mask="url(#mask15_209_7165)">
<path d="M99.83 117.12C101.43 117.12 102.46 116.31 102.46 115.16C102.46 114.16 101.58 113.63 100.9 113.56C101.64 113.43 102.36 112.88 102.36 112.04C102.36 110.93 101.4 110.23 99.84 110.23C98.67 110.23 97.83 110.68 97.29 111.29L98 112.18C98.47 111.73 99.05 111.49 99.69 111.49C100.39 111.49 100.93 111.75 100.93 112.28C100.93 112.77 100.44 112.99 99.7 112.99C99.45 112.99 98.99 112.99 98.87 112.98V114.26C98.97 114.25 99.42 114.24 99.7 114.24C100.63 114.24 101.04 114.48 101.04 115.01C101.04 115.51 100.59 115.86 99.78 115.86C99.13 115.86 98.4 115.58 97.94 115.1L97.2 116.05C97.69 116.65 98.6 117.12 99.83 117.12ZM113.328 117V113.51C113.328 112.52 112.798 112.05 111.908 112.05C111.168 112.05 110.528 112.49 110.248 112.93C110.068 112.38 109.618 112.05 108.908 112.05C108.168 112.05 107.528 112.51 107.328 112.8V112.17H106.058V117H107.328V113.75C107.518 113.48 107.888 113.18 108.328 113.18C108.848 113.18 109.048 113.5 109.048 113.95V117H110.328V113.74C110.508 113.48 110.878 113.18 111.328 113.18C111.848 113.18 112.048 113.5 112.048 113.95V117H113.328ZM115.203 111.65C115.623 111.65 115.963 111.31 115.963 110.89C115.963 110.47 115.623 110.14 115.203 110.14C114.793 110.14 114.443 110.47 114.443 110.89C114.443 111.31 114.793 111.65 115.203 111.65ZM115.843 117V112.17H114.573V117H115.843ZM121.633 117V113.59C121.633 112.65 121.123 112.05 120.063 112.05C119.273 112.05 118.683 112.43 118.373 112.8V112.17H117.103V117H118.373V113.75C118.583 113.46 118.973 113.18 119.473 113.18C120.013 113.18 120.363 113.41 120.363 114.08V117H121.633Z" fill="white"/>
</g>
</g>
<defs>
<filter id="filter0_d_209_7165" x="0" y="0" width="220" height="221" filterUnits="userSpaceOnUse" color-interpolation-filters="sRGB">
<feFlood flood-opacity="0" result="BackgroundImageFix"/>
<feColorMatrix in="SourceAlpha" type="matrix" values="0 0 0 0 0 0 0 0 0 0 0 0 0 0 0 0 0 0 127 0" result="hardAlpha"/>
<feOffset/>
<feGaussianBlur stdDeviation="30"/>
<feColorMatrix type="matrix" values="0 0 0 0 1 0 0 0 0 0.2 0 0 0 0 0.713726 0 0 0 1 0"/>
<feBlend mode="normal" in2="BackgroundImageFix" result="effect1_dropShadow_209_7165"/>
<feBlend mode="normal" in="SourceGraphic" in2="effect1_dropShadow_209_7165" result="shape"/>
</filter>
<clipPath id="clip0_209_7165">
<rect width="100" height="101" fill="white" transform="translate(60 60)"/>
</clipPath>
</defs>
</svg>
