<svg width="201" height="200" viewBox="0 0 201 200" fill="none" xmlns="http://www.w3.org/2000/svg">
<g id="Group 13" filter="url(#filter0_d_209_7069)">
<g id="Group 3">
<mask id="mask0_209_7069" style="mask-type:luminance" maskUnits="userSpaceOnUse" x="50" y="50" width="101" height="100">
<path id="Clip 2" fill-rule="evenodd" clip-rule="evenodd" d="M50.5 99.9996C50.5 127.614 72.8855 150 100.5 150V150C128.114 150 150.5 127.614 150.5 99.9996V99.9996C150.5 72.3859 128.114 50 100.5 50V50C72.8855 50 50.5 72.3859 50.5 99.9996" fill="white"/>
</mask>
<g mask="url(#mask0_209_7069)">
<path id="Fill 1" fill-rule="evenodd" clip-rule="evenodd" d="M100.451 150.866C72.4618 150.866 49.7722 128.176 49.7722 100.187C49.7722 72.1983 72.4618 49.5087 100.451 49.5087C128.44 49.5087 151.13 72.1983 151.13 100.187C151.13 128.176 128.44 150.866 100.451 150.866" fill="#FFF143"/>
</g>
</g>
<g id="Group 6">
<mask id="mask1_209_7069" style="mask-type:luminance" maskUnits="userSpaceOnUse" x="50" y="50" width="101" height="100">
<path id="Clip 5" fill-rule="evenodd" clip-rule="evenodd" d="M50.5 99.9996C50.5 127.614 72.8855 150 100.5 150V150C128.114 150 150.5 127.614 150.5 99.9996V99.9996C150.5 72.3859 128.114 50 100.5 50V50C72.8855 50 50.5 72.3859 50.5 99.9996" fill="white"/>
</mask>
<g mask="url(#mask1_209_7069)">
<path id="Fill 4" fill-rule="evenodd" clip-rule="evenodd" d="M148.978 117.234L118.396 89.3995L106.802 85.1259L104.436 82.983L102.905 83.5279L98.0435 82.8766L90.1245 92.1439L69.472 117.123L111.842 156.301C111.842 156.301 127.964 156.884 139.62 141.668C151.275 126.452 148.978 117.234 148.978 117.234" fill="#F4DC00"/>
</g>
</g>
<g id="Group 9">
<mask id="mask2_209_7069" style="mask-type:luminance" maskUnits="userSpaceOnUse" x="50" y="50" width="101" height="100">
<path id="Clip 8" fill-rule="evenodd" clip-rule="evenodd" d="M50.5 99.9996C50.5 127.614 72.8855 150 100.5 150V150C128.114 150 150.5 127.614 150.5 99.9996V99.9996C150.5 72.3859 128.114 50 100.5 50V50C72.8855 50 50.5 72.3859 50.5 99.9996" fill="white"/>
</mask>
<g mask="url(#mask2_209_7069)">
<path id="Fill 7" fill-rule="evenodd" clip-rule="evenodd" d="M99.1338 122.434L75.0446 122.286C75.0446 122.286 77.0841 114.094 87.2825 114.121C97.481 114.147 99.1338 122.434 99.1338 122.434" fill="#00AFAF"/>
</g>
</g>
<g id="Group 12">
<mask id="mask3_209_7069" style="mask-type:luminance" maskUnits="userSpaceOnUse" x="50" y="50" width="101" height="100">
<path id="Clip 11" fill-rule="evenodd" clip-rule="evenodd" d="M50.5 99.9996C50.5 127.614 72.8855 150 100.5 150V150C128.114 150 150.5 127.614 150.5 99.9996V99.9996C150.5 72.3859 128.114 50 100.5 50V50C72.8855 50 50.5 72.3859 50.5 99.9996" fill="white"/>
</mask>
<g mask="url(#mask3_209_7069)">
<path id="Fill 10" fill-rule="evenodd" clip-rule="evenodd" d="M118.842 86.4377L118.598 86.3105C117.511 85.7375 116.022 84.9528 113.33 85.523C112.722 85.6522 112.105 85.6271 111.544 85.4514C111.083 85.3062 110.692 85.0303 110.408 84.6506L106.308 78.8467C105.887 78.4898 105.384 78.5093 105.117 78.5543C104.66 78.6314 104.231 78.8878 104.074 79.1778C103.94 79.4494 103.757 79.7911 103.564 80.1516C103.258 80.7238 102.941 81.316 102.714 81.8197C102.604 82.0651 102.404 82.2506 102.15 82.3422C101.899 82.4326 101.618 82.417 101.377 82.2988C101.345 82.2835 101.315 82.2647 101.288 82.2444C100.698 82.0142 99.8255 81.4749 99.7601 81.379L99.0877 80.4001C99.0548 80.352 99.002 80.3254 98.9495 80.3297C98.3996 80.3751 97.6971 81.0721 97.4944 81.3128C97.3812 81.4471 97.2086 81.5168 97.0337 81.4984C96.8587 81.4808 96.7041 81.377 96.6212 81.222C96.5789 81.1434 96.5335 81.0541 96.485 80.9582C96.3171 80.6256 96.0098 80.0177 95.7437 79.8745L94.8243 80.5125C94.1358 80.9903 93.2255 80.9598 92.5589 80.4373C92.1366 80.1058 91.2709 79.822 90.3679 79.9813C89.5311 80.1289 88.8251 80.6314 88.3257 81.4342C86.564 84.2659 86.4223 91.9195 86.4216 91.9966C86.42 92.0796 86.3992 92.1598 86.3621 92.2318L86.5965 94.289C84.654 96.7626 74.0321 96.3308 72.4372 96.2616C70.775 96.1892 65.7206 94.968 62.2626 93.4604C58.5198 91.8287 54.4846 90.8706 50.4079 90.6455C49.8431 90.6146 49.2666 90.5986 48.7225 90.7539C47.8008 91.0177 47.0842 91.7406 46.5014 92.5019C44.8165 94.7015 43.9006 97.4162 43.5073 100.159C43.1139 102.901 43.2169 105.69 43.4008 108.455C43.6392 112.035 44.0114 115.606 44.5167 119.159C44.6325 119.974 44.8161 120.887 45.5065 121.336C45.8047 121.529 46.1617 121.608 46.512 121.667C48.6626 122.032 50.7034 121.793 52.7049 121.012C54.6826 120.241 57.0897 120.288 59.2055 120.036C64.0713 119.458 68.9953 119.009 73.7116 117.665C79.2826 116.078 83.5347 114.703 88.9754 115.162L88.9758 115.166C92.8325 115.827 94.557 118.114 96.2587 119.836C97.467 121.059 98.6082 122.213 100.198 122.968C115.389 130.173 125.374 123.446 129.308 115.497C133.83 106.359 131.699 93.0706 118.842 86.4377" fill="black"/>
</g>
</g>
</g>
<defs>
<filter id="filter0_d_209_7069" x="0.5" y="0" width="200" height="200" filterUnits="userSpaceOnUse" color-interpolation-filters="sRGB">
<feFlood flood-opacity="0" result="BackgroundImageFix"/>
<feColorMatrix in="SourceAlpha" type="matrix" values="0 0 0 0 0 0 0 0 0 0 0 0 0 0 0 0 0 0 127 0" result="hardAlpha"/>
<feOffset/>
<feGaussianBlur stdDeviation="25"/>
<feColorMatrix type="matrix" values="0 0 0 0 1 0 0 0 0 0.945098 0 0 0 0 0.262745 0 0 0 1 0"/>
<feBlend mode="normal" in2="BackgroundImageFix" result="effect1_dropShadow_209_7069"/>
<feBlend mode="normal" in="SourceGraphic" in2="effect1_dropShadow_209_7069" result="shape"/>
</filter>
</defs>
</svg>
