<svg width="221" height="220" viewBox="0 0 221 220" fill="none" xmlns="http://www.w3.org/2000/svg">
<g id="Group 136" filter="url(#filter0_d_209_7084)">
<g id="Group 63">
<mask id="mask0_209_7084" style="mask-type:luminance" maskUnits="userSpaceOnUse" x="60" y="60" width="101" height="100">
<path id="Clip 62" fill-rule="evenodd" clip-rule="evenodd" d="M60.5 110C60.5 137.614 82.8859 160 110.5 160V160C138.114 160 160.5 137.614 160.5 110V110C160.5 82.3859 138.114 60 110.5 60V60C82.8859 60 60.5 82.3859 60.5 110" fill="white"/>
</mask>
<g mask="url(#mask0_209_7084)">
<path id="Fill 61" fill-rule="evenodd" clip-rule="evenodd" d="M110.451 161.288C82.2286 161.288 59.3503 138.409 59.3503 110.187C59.3503 81.9651 82.2286 59.0864 110.451 59.0864C138.673 59.0864 161.552 81.9651 161.552 110.187C161.552 138.409 138.673 161.288 110.451 161.288" fill="#2CF5FF"/>
</g>
</g>
<g id="Group 66">
<mask id="mask1_209_7084" style="mask-type:luminance" maskUnits="userSpaceOnUse" x="60" y="60" width="101" height="100">
<path id="Clip 65" fill-rule="evenodd" clip-rule="evenodd" d="M60.5 110C60.5 137.614 82.8859 160 110.5 160V160C138.114 160 160.5 137.614 160.5 110V110C160.5 82.3859 138.114 60 110.5 60V60C82.8859 60 60.5 82.3859 60.5 110" fill="white"/>
</mask>
<g mask="url(#mask1_209_7084)">
<path id="Fill 64" fill-rule="evenodd" clip-rule="evenodd" d="M158.978 127.234L128.396 99.3992L116.802 95.1257L114.436 92.9828L112.905 93.5276L108.044 92.8763L100.125 102.144L79.4722 127.123L121.842 166.301C121.842 166.301 137.965 166.884 149.62 151.668C161.275 136.452 158.978 127.234 158.978 127.234" fill="#00CEC8"/>
</g>
</g>
<g id="Group 69">
<mask id="mask2_209_7084" style="mask-type:luminance" maskUnits="userSpaceOnUse" x="60" y="60" width="101" height="100">
<path id="Clip 68" fill-rule="evenodd" clip-rule="evenodd" d="M60.5 110C60.5 137.614 82.8859 160 110.5 160V160C138.114 160 160.5 137.614 160.5 110V110C160.5 82.3859 138.114 60 110.5 60V60C82.8859 60 60.5 82.3859 60.5 110" fill="white"/>
</mask>
<g mask="url(#mask2_209_7084)">
<path id="Fill 67" fill-rule="evenodd" clip-rule="evenodd" d="M109.134 132.434L85.0446 132.286C85.0446 132.286 87.0841 124.094 97.2825 124.12C107.481 124.147 109.134 132.434 109.134 132.434" fill="#00AFAF"/>
</g>
</g>
<g id="Group 72">
<mask id="mask3_209_7084" style="mask-type:luminance" maskUnits="userSpaceOnUse" x="60" y="60" width="101" height="100">
<path id="Clip 71" fill-rule="evenodd" clip-rule="evenodd" d="M60.5 110C60.5 137.614 82.8859 160 110.5 160V160C138.114 160 160.5 137.614 160.5 110V110C160.5 82.3859 138.114 60 110.5 60V60C82.8859 60 60.5 82.3859 60.5 110" fill="white"/>
</mask>
<g mask="url(#mask3_209_7084)">
<path id="Fill 70" fill-rule="evenodd" clip-rule="evenodd" d="M128.843 96.4376L128.6 96.3104C127.513 95.7374 126.024 94.9526 123.332 95.5229C122.723 95.6521 122.106 95.627 121.546 95.4513C121.084 95.3061 120.694 95.0301 120.409 94.6505L116.309 88.8466C115.889 88.4896 115.386 88.5092 115.119 88.5542C114.661 88.6313 114.233 88.8877 114.076 89.1777C113.942 89.4493 113.759 89.791 113.566 90.1515C113.26 90.7237 112.943 91.3159 112.716 91.8196C112.606 92.065 112.406 92.2505 112.152 92.3421C111.901 92.4325 111.62 92.4168 111.379 92.2986C111.346 92.2834 111.317 92.2646 111.29 92.2442C110.699 92.0141 109.827 91.4748 109.762 91.3789L109.089 90.4C109.056 90.3519 109.004 90.3252 108.951 90.3296C108.401 90.375 107.699 91.072 107.496 91.3127C107.383 91.447 107.21 91.5166 107.035 91.4982C106.86 91.4806 106.706 91.3769 106.623 91.2219C106.58 91.1433 106.535 91.054 106.487 90.9581C106.319 90.6254 106.011 90.0176 105.745 89.8744L104.826 90.5123C104.137 90.9902 103.227 90.9597 102.561 90.4372C102.138 90.1057 101.272 89.8219 100.37 89.9812C99.5327 90.1288 98.8267 90.6313 98.3272 91.4341C96.5656 94.2658 96.4239 101.919 96.4231 101.996C96.4216 102.079 96.4008 102.16 96.3636 102.232L96.5981 104.289C94.6556 106.762 84.0337 106.331 82.4388 106.261C80.7766 106.189 75.7222 104.968 72.2642 103.46C68.5214 101.829 64.4862 100.87 60.4094 100.645C59.8447 100.614 59.2681 100.598 58.7241 100.754C57.8024 101.018 57.0858 101.741 56.503 102.502C54.8181 104.701 53.9022 107.416 53.5089 110.159C53.1155 112.901 53.2184 115.69 53.4024 118.455C53.6408 122.035 54.013 125.606 54.5182 129.159C54.6341 129.974 54.8177 130.887 55.5081 131.335C55.8063 131.529 56.1633 131.607 56.5136 131.667C58.6642 132.032 60.7049 131.793 62.7065 131.012C64.6842 130.241 67.0912 130.288 69.2071 130.036C74.0728 129.458 78.9969 129.009 83.7132 127.665C89.2842 126.077 93.5363 124.703 98.977 125.162L98.9773 125.166C102.834 125.827 104.559 128.114 106.26 129.836C107.469 131.059 108.61 132.213 110.2 132.968C125.391 140.173 135.375 133.446 139.31 125.497C143.832 116.359 141.701 103.07 128.843 96.4376" fill="black"/>
</g>
</g>
<g id="Group 75">
<mask id="mask4_209_7084" style="mask-type:luminance" maskUnits="userSpaceOnUse" x="60" y="60" width="101" height="100">
<path id="Clip 74" fill-rule="evenodd" clip-rule="evenodd" d="M60.5 110C60.5 137.614 82.8859 160 110.5 160V160C138.114 160 160.5 137.614 160.5 110V110C160.5 82.3859 138.114 60 110.5 60V60C82.8859 60 60.5 82.3859 60.5 110" fill="white"/>
</mask>
<g mask="url(#mask4_209_7084)">
<path id="Fill 73" fill-rule="evenodd" clip-rule="evenodd" d="M113.204 85.1277C113.447 84.8025 113.682 84.4272 113.646 84.0225C113.622 83.761 113.487 83.5246 113.354 83.2984C112.323 81.5512 111.224 79.8448 110.059 78.1837C109.776 77.7802 109.475 77.3661 109.045 77.1262C108.614 76.8863 108.016 76.8741 107.675 77.2303C107.393 77.5254 107.361 77.9798 107.419 78.3837C107.561 79.3724 108.129 80.2377 108.594 81.1223C108.782 81.4792 108.956 81.8534 108.998 82.2546C109.007 82.3465 109.005 82.4373 109 82.5281C108.925 82.4569 108.843 82.3915 108.75 82.3375C108.101 81.9626 107.272 82.1841 106.897 82.8323C106.546 83.4385 106.722 84.1982 107.275 84.6013C107.248 84.6041 107.22 84.6092 107.192 84.6084C107.033 84.6033 106.881 84.5391 106.74 84.4655C105.783 83.9677 105.144 83.0397 104.444 82.2197C103.82 81.4886 102.456 79.0174 101.3 79.8643C100.144 80.7109 100.845 81.8315 101.143 82.4272C102.153 84.4479 103.404 86.3481 104.86 88.0753C105.195 88.4722 105.553 88.8702 106.02 89.0968C106.879 89.5137 107.917 89.2636 108.767 88.8299C109.059 88.6812 109.387 88.5058 109.698 88.6092C109.967 88.698 110.127 88.9638 110.29 89.1951C110.751 89.8483 111.629 91.1704 112.844 90.1231C113.845 89.2593 112.56 87.5485 111.908 86.5939C112.327 86.096 112.809 85.6553 113.204 85.1277" fill="white"/>
</g>
</g>
<g id="Group 78">
<mask id="mask5_209_7084" style="mask-type:luminance" maskUnits="userSpaceOnUse" x="60" y="60" width="101" height="100">
<path id="Clip 77" fill-rule="evenodd" clip-rule="evenodd" d="M60.5 110C60.5 137.614 82.8859 160 110.5 160V160C138.114 160 160.5 137.614 160.5 110V110C160.5 82.3859 138.114 60 110.5 60V60C82.8859 60 60.5 82.3859 60.5 110V110Z" fill="white"/>
</mask>
<g mask="url(#mask5_209_7084)">
<path id="Fill 76" fill-rule="evenodd" clip-rule="evenodd" d="M115.556 93.8743L114.512 92.5961L114.671 92.4653L115.716 93.7436L115.556 93.8743Z" fill="#00CEC8"/>
</g>
</g>
<g id="Group 81">
<mask id="mask6_209_7084" style="mask-type:luminance" maskUnits="userSpaceOnUse" x="60" y="60" width="101" height="100">
<path id="Clip 80" fill-rule="evenodd" clip-rule="evenodd" d="M60.5 110C60.5 137.614 82.8859 160 110.5 160V160C138.114 160 160.5 137.614 160.5 110V110C160.5 82.3859 138.114 60 110.5 60V60C82.8859 60 60.5 82.3859 60.5 110V110Z" fill="white"/>
</mask>
<g mask="url(#mask6_209_7084)">
<path id="Fill 79" fill-rule="evenodd" clip-rule="evenodd" d="M114.143 92.1489L113.42 91.2436L113.581 91.1149L114.304 92.0205L114.143 92.1489Z" fill="#00CEC8"/>
</g>
</g>
<g id="Group 84">
<mask id="mask7_209_7084" style="mask-type:luminance" maskUnits="userSpaceOnUse" x="60" y="60" width="101" height="100">
<path id="Clip 83" fill-rule="evenodd" clip-rule="evenodd" d="M60.5 110C60.5 137.614 82.8859 160 110.5 160V160C138.114 160 160.5 137.614 160.5 110V110C160.5 82.3859 138.114 60 110.5 60V60C82.8859 60 60.5 82.3859 60.5 110V110Z" fill="white"/>
</mask>
<g mask="url(#mask7_209_7084)">
<path id="Fill 82" fill-rule="evenodd" clip-rule="evenodd" d="M117 95.6275L115.956 94.3492L116.115 94.2185L117.16 95.4968L117 95.6275Z" fill="#00CEC8"/>
</g>
</g>
<g id="Group 87">
<mask id="mask8_209_7084" style="mask-type:luminance" maskUnits="userSpaceOnUse" x="60" y="60" width="101" height="100">
<path id="Clip 86" fill-rule="evenodd" clip-rule="evenodd" d="M60.5 110C60.5 137.614 82.8859 160 110.5 160V160C138.114 160 160.5 137.614 160.5 110V110C160.5 82.3859 138.114 60 110.5 60V60C82.8859 60 60.5 82.3859 60.5 110V110Z" fill="white"/>
</mask>
<g mask="url(#mask8_209_7084)">
<path id="Fill 85" fill-rule="evenodd" clip-rule="evenodd" d="M114.24 94.736L113.542 93.2405L113.729 93.1532L114.427 94.6487L114.24 94.736Z" fill="#00CEC8"/>
</g>
</g>
<g id="Group 90">
<mask id="mask9_209_7084" style="mask-type:luminance" maskUnits="userSpaceOnUse" x="60" y="60" width="101" height="100">
<path id="Clip 89" fill-rule="evenodd" clip-rule="evenodd" d="M60.5 110C60.5 137.614 82.8859 160 110.5 160V160C138.114 160 160.5 137.614 160.5 110V110C160.5 82.3859 138.114 60 110.5 60V60C82.8859 60 60.5 82.3859 60.5 110V110Z" fill="white"/>
</mask>
<g mask="url(#mask9_209_7084)">
<path id="Fill 88" fill-rule="evenodd" clip-rule="evenodd" d="M113.294 92.7154L112.816 91.6602L113.004 91.5753L113.482 92.6305L113.294 92.7154Z" fill="#00CEC8"/>
</g>
</g>
<g id="Group 93">
<mask id="mask10_209_7084" style="mask-type:luminance" maskUnits="userSpaceOnUse" x="60" y="60" width="101" height="100">
<path id="Clip 92" fill-rule="evenodd" clip-rule="evenodd" d="M60.5 110C60.5 137.614 82.8859 160 110.5 160V160C138.114 160 160.5 137.614 160.5 110V110C160.5 82.3859 138.114 60 110.5 60V60C82.8859 60 60.5 82.3859 60.5 110V110Z" fill="white"/>
</mask>
<g mask="url(#mask10_209_7084)">
<path id="Fill 91" fill-rule="evenodd" clip-rule="evenodd" d="M115.208 96.7899L114.51 95.2944L114.697 95.2072L115.396 96.7027L115.208 96.7899Z" fill="#00CEC8"/>
</g>
</g>
<g id="Group 96">
<mask id="mask11_209_7084" style="mask-type:luminance" maskUnits="userSpaceOnUse" x="60" y="60" width="101" height="100">
<path id="Clip 95" fill-rule="evenodd" clip-rule="evenodd" d="M60.5 110C60.5 137.614 82.8859 160 110.5 160V160C138.114 160 160.5 137.614 160.5 110V110C160.5 82.3859 138.114 60 110.5 60V60C82.8859 60 60.5 82.3859 60.5 110V110Z" fill="white"/>
</mask>
<g mask="url(#mask11_209_7084)">
<path id="Fill 94" fill-rule="evenodd" clip-rule="evenodd" d="M116.685 93.0601L115.445 91.9704L115.581 91.8151L116.821 92.9051L116.685 93.0601Z" fill="#00CEC8"/>
</g>
</g>
<g id="Group 99">
<mask id="mask12_209_7084" style="mask-type:luminance" maskUnits="userSpaceOnUse" x="60" y="60" width="101" height="100">
<path id="Clip 98" fill-rule="evenodd" clip-rule="evenodd" d="M60.5 110C60.5 137.614 82.8859 160 110.5 160V160C138.114 160 160.5 137.614 160.5 110V110C160.5 82.3859 138.114 60 110.5 60V60C82.8859 60 60.5 82.3859 60.5 110V110Z" fill="white"/>
</mask>
<g mask="url(#mask12_209_7084)">
<path id="Fill 97" fill-rule="evenodd" clip-rule="evenodd" d="M115.009 91.5896L114.147 90.8151L114.284 90.6613L115.146 91.4358L115.009 91.5896Z" fill="#00CEC8"/>
</g>
</g>
<g id="Group 102">
<mask id="mask13_209_7084" style="mask-type:luminance" maskUnits="userSpaceOnUse" x="60" y="60" width="101" height="100">
<path id="Clip 101" fill-rule="evenodd" clip-rule="evenodd" d="M60.5 110C60.5 137.614 82.8859 160 110.5 160V160C138.114 160 160.5 137.614 160.5 110V110C160.5 82.3859 138.114 60 110.5 60V60C82.8859 60 60.5 82.3859 60.5 110V110Z" fill="white"/>
</mask>
<g mask="url(#mask13_209_7084)">
<path id="Fill 100" fill-rule="evenodd" clip-rule="evenodd" d="M118.395 94.5536L117.155 93.464L117.292 93.3086L118.532 94.3986L118.395 94.5536Z" fill="#00CEC8"/>
</g>
</g>
<g id="Group 105">
<mask id="mask14_209_7084" style="mask-type:luminance" maskUnits="userSpaceOnUse" x="60" y="60" width="101" height="100">
<path id="Clip 104" fill-rule="evenodd" clip-rule="evenodd" d="M60.5 110C60.5 137.614 82.8859 160 110.5 160V160C138.114 160 160.5 137.614 160.5 110V110C160.5 82.3859 138.114 60 110.5 60V60C82.8859 60 60.5 82.3859 60.5 110" fill="white"/>
</mask>
<g mask="url(#mask14_209_7084)">
<path id="Fill 103" fill-rule="evenodd" clip-rule="evenodd" d="M119.7 77.3594C119.656 77.0976 119.653 76.8733 119.663 76.6686L119.638 76.6804C119.425 76.2221 119.13 75.7731 118.893 75.4123C118.557 74.9015 118.396 74.6467 118.409 74.4397C118.421 74.2405 118.412 74.026 118.399 73.8424C118.002 73.826 117.62 73.7962 117.265 73.7669C116.755 73.725 116.265 73.6855 115.818 73.6964C115.658 74.7129 116.046 75.3771 116.187 76.3641C116.398 77.8369 116.958 78.8804 117.654 80.1661C117.861 80.5473 118.139 80.8456 118.406 81.078C118.495 78.7547 119.262 77.8675 119.6 77.4788C119.636 77.4381 119.678 77.3896 119.7 77.3594" fill="black"/>
</g>
</g>
<g id="Group 108">
<mask id="mask15_209_7084" style="mask-type:luminance" maskUnits="userSpaceOnUse" x="60" y="60" width="101" height="100">
<path id="Clip 107" fill-rule="evenodd" clip-rule="evenodd" d="M60.5 110C60.5 137.614 82.8859 160 110.5 160V160C138.114 160 160.5 137.614 160.5 110V110C160.5 82.3859 138.114 60 110.5 60V60C82.8859 60 60.5 82.3859 60.5 110" fill="white"/>
</mask>
<g mask="url(#mask15_209_7084)">
<path id="Fill 106" fill-rule="evenodd" clip-rule="evenodd" d="M119.792 74.5393C119.773 74.2528 119.735 73.9753 119.628 73.8775C119.606 73.8575 119.573 73.8352 119.493 73.8395C119.392 73.8454 119.294 73.845 119.194 73.8474C119.234 73.9429 119.446 74.1691 119.609 74.3417C119.667 74.4035 119.73 74.472 119.792 74.5393" fill="black"/>
</g>
</g>
<g id="Group 111">
<mask id="mask16_209_7084" style="mask-type:luminance" maskUnits="userSpaceOnUse" x="60" y="60" width="101" height="100">
<path id="Clip 110" fill-rule="evenodd" clip-rule="evenodd" d="M60.5 110C60.5 137.614 82.8859 160 110.5 160V160C138.114 160 160.5 137.614 160.5 110V110C160.5 82.3859 138.114 60 110.5 60V60C82.8859 60 60.5 82.3859 60.5 110" fill="white"/>
</mask>
<g mask="url(#mask16_209_7084)">
<path id="Fill 109" fill-rule="evenodd" clip-rule="evenodd" d="M119.767 75.9431C119.816 75.7181 119.857 75.5239 119.838 75.3349C119.832 75.286 119.831 75.2312 119.828 75.1799C119.67 74.9772 119.486 74.7823 119.323 74.6097C119.018 74.2868 118.818 74.0652 118.798 73.8519C118.796 73.8519 118.793 73.8519 118.79 73.8519C118.803 74.0418 118.811 74.259 118.798 74.4641C118.801 74.5631 119.032 74.9146 119.218 75.1971C119.382 75.4457 119.571 75.7369 119.746 76.0461C119.753 76.0124 119.76 75.9752 119.767 75.9431" fill="black"/>
</g>
</g>
<g id="Group 114">
<mask id="mask17_209_7084" style="mask-type:luminance" maskUnits="userSpaceOnUse" x="60" y="60" width="101" height="100">
<path id="Clip 113" fill-rule="evenodd" clip-rule="evenodd" d="M60.5 110C60.5 137.614 82.8859 160 110.5 160V160C138.114 160 160.5 137.614 160.5 110V110C160.5 82.3859 138.114 60 110.5 60V60C82.8859 60 60.5 82.3859 60.5 110" fill="white"/>
</mask>
<g mask="url(#mask17_209_7084)">
<path id="Fill 112" fill-rule="evenodd" clip-rule="evenodd" d="M127.006 67.9005C126.463 65.688 126.142 62.9526 126.109 61.6786C126.076 60.4043 126.823 58.1827 127.314 56.4144L117.431 57.2845C116.393 59.8888 115.617 61.362 114.611 62.8704C113.605 64.3784 113.066 64.5111 111.735 67.562C111.021 69.1972 109.695 71.0821 107.65 73.9428C106.222 75.9424 105.933 76.2727 105.828 77.5702C105.77 78.2814 105.696 78.688 105.271 80.1765C105.045 80.9679 104.431 81.8136 104.179 82.3718C103.927 82.9295 104.587 83.3483 105.204 83.3076C105.82 83.2673 108.899 82.1741 110.045 77.5569C110.142 77.1659 110.58 77.2782 112.726 74.3138C113.181 73.6857 114.513 73.4062 115.346 73.3193L115.346 73.3166C115.378 73.3131 115.413 73.3131 115.445 73.3099C115.544 73.3009 115.633 73.2947 115.712 73.2911C116.207 73.2704 116.74 73.3111 117.299 73.3569C117.989 73.4133 118.704 73.4716 119.47 73.4289C119.645 73.4195 119.789 73.4677 119.905 73.5725C120.177 73.8195 120.197 74.3017 120.219 74.8129C120.225 74.9765 120.232 75.1401 120.248 75.2915C120.276 75.5463 120.225 75.7816 120.171 76.0301C120.096 76.3757 120.012 76.7675 120.113 77.333C120.141 77.4845 120.045 77.5956 119.912 77.7487C119.588 78.1205 118.836 78.9882 118.809 81.3953C118.812 81.3964 118.814 81.3988 118.817 81.4003C118.816 81.4133 118.811 81.4266 118.808 81.4399C118.808 81.4469 118.808 81.4532 118.808 81.4602H118.804C118.676 82.0195 117.478 82.6066 116.457 84.1855C116.193 84.5949 113.563 84.7886 112.301 87.6144C111.951 88.398 112.584 88.861 112.84 88.8039C113.097 88.7467 113.319 88.6571 113.319 88.6571C113.319 88.6571 113.438 89.3573 113.876 89.2724C114.315 89.1874 115.51 88.8598 116.088 88.861C116.666 88.8626 118.029 88.7471 118.911 88.2363C119.792 87.7256 122.773 85.5436 123.727 84.9581C125.081 84.1268 125.158 83.9784 125.607 81.6226C126.288 78.0567 127.623 74.8477 127.963 73.1729C128.294 71.5416 127.549 70.1127 127.006 67.9005" fill="black"/>
</g>
</g>
<g id="Group 117">
<mask id="mask18_209_7084" style="mask-type:luminance" maskUnits="userSpaceOnUse" x="60" y="60" width="101" height="100">
<path id="Clip 116" fill-rule="evenodd" clip-rule="evenodd" d="M60.5 110C60.5 137.614 82.8859 160 110.5 160V160C138.114 160 160.5 137.614 160.5 110V110C160.5 82.3859 138.114 60 110.5 60V60C82.8859 60 60.5 82.3859 60.5 110" fill="white"/>
</mask>
<g mask="url(#mask18_209_7084)">
<path id="Fill 115" fill-rule="evenodd" clip-rule="evenodd" d="M118.807 81.4399C118.805 81.4466 118.804 81.4536 118.802 81.4603H118.806C118.806 81.4532 118.807 81.447 118.807 81.4399" fill="#92FFFC"/>
</g>
</g>
<g id="Group 120">
<mask id="mask19_209_7084" style="mask-type:luminance" maskUnits="userSpaceOnUse" x="60" y="60" width="101" height="100">
<path id="Clip 119" fill-rule="evenodd" clip-rule="evenodd" d="M60.5 110C60.5 137.614 82.8859 160 110.5 160V160C138.114 160 160.5 137.614 160.5 110V110C160.5 82.3859 138.114 60 110.5 60V60C82.8859 60 60.5 82.3859 60.5 110" fill="white"/>
</mask>
<g mask="url(#mask19_209_7084)">
<path id="Fill 118" fill-rule="evenodd" clip-rule="evenodd" d="M115.345 73.3168L115.345 73.3192C115.379 73.316 115.412 73.3129 115.444 73.3098C115.411 73.3129 115.377 73.3129 115.345 73.3168" fill="#92FFFC"/>
</g>
</g>
<g id="Group 123">
<mask id="mask20_209_7084" style="mask-type:luminance" maskUnits="userSpaceOnUse" x="60" y="60" width="101" height="100">
<path id="Clip 122" fill-rule="evenodd" clip-rule="evenodd" d="M60.5 110C60.5 137.614 82.8859 160 110.5 160V160C138.114 160 160.5 137.614 160.5 110V110C160.5 82.3859 138.114 60 110.5 60V60C82.8859 60 60.5 82.3859 60.5 110" fill="white"/>
</mask>
<g mask="url(#mask20_209_7084)">
<path id="Fill 121" fill-rule="evenodd" clip-rule="evenodd" d="M119.219 75.1978C119.033 74.9153 118.801 74.5638 118.798 74.4648C118.811 74.2597 118.803 74.0425 118.791 73.8526C118.794 73.8526 118.796 73.8526 118.799 73.8526C118.818 74.0659 119.019 74.2875 119.323 74.6108C119.486 74.783 119.67 74.9779 119.828 75.181C119.832 75.2319 119.833 75.2867 119.838 75.3356C119.858 75.5246 119.816 75.7192 119.767 75.9438C119.761 75.9759 119.754 76.0131 119.747 76.0468C119.571 75.7376 119.382 75.4464 119.219 75.1978M119.492 73.8402C119.572 73.8359 119.605 73.8582 119.627 73.8782C119.734 73.9756 119.773 74.2531 119.791 74.54C119.729 74.4723 119.666 74.4042 119.608 74.342C119.445 74.1698 119.234 73.9431 119.193 73.848C119.292 73.8453 119.391 73.8457 119.492 73.8402M119.91 77.7492C120.043 77.5958 120.14 77.485 120.112 77.3336C120.01 76.768 120.095 76.3762 120.17 76.0306C120.223 75.7821 120.274 75.5469 120.247 75.2921C120.231 75.1406 120.224 74.977 120.217 74.8134C120.196 74.3023 120.176 73.8197 119.904 73.5731C119.788 73.4682 119.644 73.4201 119.469 73.4291C118.702 73.4721 117.988 73.4138 117.298 73.3574C116.738 73.3117 116.206 73.2709 115.71 73.2917C115.743 73.2901 115.777 73.289 115.806 73.2882C115.837 73.2878 115.871 73.2882 115.905 73.2886C115.865 73.4322 115.838 73.5668 115.817 73.6972C116.264 73.6858 116.754 73.7257 117.264 73.7676C117.619 73.7966 118.001 73.8267 118.398 73.8428C118.411 74.0267 118.42 74.2412 118.408 74.44C118.395 74.6471 118.556 74.9019 118.892 75.413C119.129 75.7735 119.424 76.2228 119.637 76.6807L119.662 76.669C119.652 76.8741 119.655 77.098 119.699 77.3598C119.677 77.3903 119.635 77.4385 119.599 77.4796C119.261 77.8682 118.494 78.7555 118.405 81.0788C118.547 81.2025 118.686 81.3128 118.808 81.3954C118.835 78.9888 119.587 78.121 119.91 77.7492" fill="#92FFFC"/>
</g>
</g>
<g id="Group 126">
<mask id="mask21_209_7084" style="mask-type:luminance" maskUnits="userSpaceOnUse" x="60" y="60" width="101" height="100">
<path id="Clip 125" fill-rule="evenodd" clip-rule="evenodd" d="M60.5 110C60.5 137.614 82.8859 160 110.5 160V160C138.114 160 160.5 137.614 160.5 110V110C160.5 82.3859 138.114 60 110.5 60V60C82.8859 60 60.5 82.3859 60.5 110" fill="white"/>
</mask>
<g mask="url(#mask21_209_7084)">
<path id="Fill 124" fill-rule="evenodd" clip-rule="evenodd" d="M106.531 80.5688C106.439 80.4279 106.26 80.4122 106.054 80.3938C105.836 80.3746 105.566 80.3512 105.382 80.1938L105.281 80.1241L105.184 80.1476C105.017 80.1879 104.91 80.4161 104.889 80.4694C104.855 80.5335 104.056 82.0494 103.96 82.2525C103.897 82.3836 103.781 82.6279 103.883 82.8314C103.921 82.9061 104.003 83.002 104.178 83.0361C104.235 83.0474 104.295 83.0521 104.358 83.0521C104.814 83.0521 105.376 82.7817 105.594 82.6181C105.891 82.3962 105.966 82.2576 106.103 82.0059L106.204 81.8243C106.494 81.3085 106.719 80.858 106.531 80.5688" fill="#92FFFC"/>
</g>
</g>
<g id="Group 129">
<mask id="mask22_209_7084" style="mask-type:luminance" maskUnits="userSpaceOnUse" x="60" y="60" width="101" height="100">
<path id="Clip 128" fill-rule="evenodd" clip-rule="evenodd" d="M60.5 110C60.5 137.614 82.8859 160 110.5 160V160C138.114 160 160.5 137.614 160.5 110V110C160.5 82.3859 138.114 60 110.5 60V60C82.8859 60 60.5 82.3859 60.5 110V110Z" fill="white"/>
</mask>
<g mask="url(#mask22_209_7084)">
<path id="Fill 127" fill-rule="evenodd" clip-rule="evenodd" d="M125.502 74.4614C125.042 75.3925 124.189 77.5252 123.776 78.643C123.564 79.2152 123.368 79.8767 123.179 80.5162C122.908 81.4321 122.651 82.297 122.405 82.7041C122.087 83.2285 121.192 83.8653 120.402 84.4274C120.162 84.598 119.928 84.7648 119.714 84.9248C119.477 85.1021 119.219 85.3017 118.954 85.5084C118.173 86.1139 117.289 86.8004 116.675 87.0963C116.116 87.3659 115.18 87.6532 114.644 87.8078C114.581 87.7792 114.503 87.7655 114.413 87.773C114.242 87.7871 113.428 87.9788 113.15 88.0642C112.855 88.1554 112.701 88.2364 112.584 88.3632C112.414 88.5464 112.346 88.8109 112.425 88.9781C112.471 89.0732 112.56 89.1299 112.661 89.1299C112.668 89.1299 112.674 89.1299 112.681 89.1291C112.976 89.1084 113.474 88.8657 114.622 88.2747C114.673 88.2485 114.71 88.2188 114.736 88.189C115.281 88.0329 116.248 87.737 116.846 87.4489C117.496 87.135 118.398 86.4352 119.194 85.8172C119.458 85.6125 119.713 85.4141 119.948 85.2383C120.16 85.0798 120.392 84.915 120.629 84.746C121.49 84.1338 122.38 83.5006 122.739 82.9068C123.012 82.4567 123.275 81.5683 123.554 80.6274C123.742 79.9937 123.936 79.3385 124.143 78.7788C124.563 77.6446 125.416 75.5194 125.853 74.6344L125.502 74.4614Z" fill="#92FFFC"/>
</g>
</g>
<g id="Group 132">
<mask id="mask23_209_7084" style="mask-type:luminance" maskUnits="userSpaceOnUse" x="60" y="60" width="101" height="100">
<path id="Clip 131" fill-rule="evenodd" clip-rule="evenodd" d="M60.5 110C60.5 137.614 82.8859 160 110.5 160V160C138.114 160 160.5 137.614 160.5 110V110C160.5 82.3859 138.114 60 110.5 60V60C82.8859 60 60.5 82.3859 60.5 110" fill="white"/>
</mask>
<g mask="url(#mask23_209_7084)">
<path id="Fill 130" fill-rule="evenodd" clip-rule="evenodd" d="M115.676 88.6214C115.502 88.5889 114.699 88.5619 114.404 88.5858C114.147 88.6061 113.937 88.6797 113.795 88.7979C113.372 89.1501 113.417 89.3302 113.433 89.3893C113.456 89.4836 113.531 89.5521 113.631 89.5721C113.678 89.5815 113.731 89.5858 113.792 89.5858C114.118 89.5858 114.677 89.4519 115.752 89.1756C115.932 89.129 115.992 89.0073 115.989 88.9083C115.984 88.7685 115.861 88.6558 115.676 88.6214" fill="#92FFFC"/>
</g>
</g>
<g id="Group 135" filter="url(#filter1_d_209_7084)">
<mask id="mask24_209_7084" style="mask-type:luminance" maskUnits="userSpaceOnUse" x="60" y="60" width="101" height="100">
<path id="Clip 134" fill-rule="evenodd" clip-rule="evenodd" d="M60.5 110C60.5 137.614 82.8859 160 110.5 160V160C138.114 160 160.5 137.614 160.5 110V110C160.5 82.3859 138.114 60 110.5 60V60C82.8859 60 60.5 82.3859 60.5 110" fill="white"/>
</mask>
<g mask="url(#mask24_209_7084)">
<path id="Fill 133" fill-rule="evenodd" clip-rule="evenodd" d="M108.6 81.1349C108.746 81.4135 108.883 81.7028 108.956 82.0069C109.047 82.0382 109.138 82.0785 109.227 82.1298C109.903 82.52 110.235 83.1016 110.543 83.7681C111.185 83.1352 111.91 82.6034 112.796 82.3763C111.93 80.9544 111.021 79.5591 110.065 78.1963C109.783 77.7924 109.482 77.3787 109.051 77.1388C108.62 76.8988 108.022 76.8863 107.681 77.2429C107.399 77.5376 107.367 77.9924 107.425 78.3959C107.567 79.385 108.136 80.2503 108.6 81.1349" fill="white"/>
</g>
</g>
</g>
<defs>
<filter id="filter0_d_209_7084" x="0.5" y="0" width="220" height="220" filterUnits="userSpaceOnUse" color-interpolation-filters="sRGB">
<feFlood flood-opacity="0" result="BackgroundImageFix"/>
<feColorMatrix in="SourceAlpha" type="matrix" values="0 0 0 0 0 0 0 0 0 0 0 0 0 0 0 0 0 0 127 0" result="hardAlpha"/>
<feOffset/>
<feGaussianBlur stdDeviation="30"/>
<feColorMatrix type="matrix" values="0 0 0 0 0.172549 0 0 0 0 0.960784 0 0 0 0 1 0 0 0 1 0"/>
<feBlend mode="normal" in2="BackgroundImageFix" result="effect1_dropShadow_209_7084"/>
<feBlend mode="normal" in="SourceGraphic" in2="effect1_dropShadow_209_7084" result="shape"/>
</filter>
<filter id="filter1_d_209_7084" x="59.4009" y="28.9658" width="101.395" height="102.802" filterUnits="userSpaceOnUse" color-interpolation-filters="sRGB">
<feFlood flood-opacity="0" result="BackgroundImageFix"/>
<feColorMatrix in="SourceAlpha" type="matrix" values="0 0 0 0 0 0 0 0 0 0 0 0 0 0 0 0 0 0 127 0" result="hardAlpha"/>
<feOffset/>
<feGaussianBlur stdDeviation="24"/>
<feColorMatrix type="matrix" values="0 0 0 0 1 0 0 0 0 0.945098 0 0 0 0 0.262745 0 0 0 1 0"/>
<feBlend mode="normal" in2="BackgroundImageFix" result="effect1_dropShadow_209_7084"/>
<feBlend mode="normal" in="SourceGraphic" in2="effect1_dropShadow_209_7084" result="shape"/>
</filter>
</defs>
</svg>
