<svg width="144" height="142" viewBox="0 0 144 142" fill="none" xmlns="http://www.w3.org/2000/svg">
<g id="medicine 1" filter="url(#filter0_ddddi_436_1511)">
<g id="Group">
<g id="Group_2">
<path id="Vector" d="M72.2196 45.8922C72.0487 45.2234 71.369 44.8196 70.6992 44.9903C68.0035 45.6788 65.761 47.3704 64.3852 49.7536C64.04 50.3514 64.2449 51.1158 64.8427 51.4609C65.0396 51.5746 65.2545 51.6287 65.4665 51.6287C65.8985 51.6287 66.3187 51.4044 66.5501 51.0034C67.5865 49.2082 69.2797 47.9328 71.3179 47.4124C71.9866 47.2418 72.3904 46.5612 72.2196 45.8922Z" fill="#FFECF6"/>
</g>
</g>
<g id="Group_3">
<g id="Group_4">
<path id="Vector_2" d="M74.9468 44.81C74.9281 44.8066 74.9092 44.8035 74.8892 44.8005C74.2077 44.696 73.5743 45.1634 73.4686 45.8446C73.3631 46.5246 73.8311 47.1621 74.5095 47.2712C74.5817 47.2839 74.6536 47.2899 74.7247 47.2899C75.3171 47.2899 75.8432 46.8667 75.953 46.2634C76.0763 45.5841 75.626 44.9335 74.9468 44.81Z" fill="#FFECF6"/>
</g>
</g>
<g id="Group_5">
<g id="Group_6">
<path id="Vector_3" d="M97.6205 76.8496C96.7004 76.5867 95.7053 76.3538 94.6504 76.1523C94.5907 76.1368 94.5299 76.1258 94.4683 76.1192C91.3933 75.5459 87.8226 75.2374 84.1 75.2374C82.0376 75.2374 80.0232 75.3333 78.112 75.5149L85.8356 62.1377C87.7744 58.7796 88.2859 54.8543 87.2758 51.0847C86.2656 47.3153 83.8599 44.1717 80.5019 42.2331C73.5435 38.2158 64.6144 40.6081 60.5972 47.5662L51.2744 63.7134C51.2735 63.7148 51.2725 63.7159 51.2717 63.7173C51.271 63.7187 51.2704 63.7201 51.2696 63.7214L41.9466 79.8693C40.0077 83.2274 39.4964 87.1527 40.5064 90.9223C41.5164 94.6917 43.9221 97.8354 47.2802 99.7739C49.5021 101.057 51.9972 101.716 54.528 101.716C55.5942 101.716 56.667 101.599 57.728 101.362C60.5516 100.732 63.0901 99.3011 65.0585 97.2616C66.0477 98.3889 67.8887 99.3418 70.5685 100.107C74.1996 101.145 79.0049 101.716 84.0995 101.716C89.194 101.716 93.9994 101.145 97.6304 100.107C101.857 98.8999 103.999 97.2278 103.999 95.1374V81.8237C104 81.8211 104 81.8187 104 81.8161C104 79.7299 101.854 78.0589 97.6205 76.8496ZM84.1001 77.7372C86.0678 77.7373 87.9846 77.8272 89.7988 77.9974L73.92 85.0057C72.978 84.8228 72.0886 84.6139 71.2664 84.3791C67.5202 83.3087 66.7 82.1659 66.7 81.8159C66.7 81.4659 67.5204 80.3232 71.2665 79.2527C74.6871 78.2756 79.2449 77.7372 84.1001 77.7372ZM62.762 48.8162C66.09 43.0518 73.4874 41.0699 79.2519 44.3979C82.0316 46.0028 84.0238 48.6074 84.8611 51.7318C85.6984 54.8563 85.2756 58.1079 83.6709 60.8878L75.0026 75.9012C74.9687 75.9064 74.9356 75.9123 74.9017 75.9177L54.0617 63.8849L62.762 48.8162ZM64.2 81.8096C64.2 81.8119 64.1996 81.8139 64.1996 81.8163V94.4224C60.5741 99.2234 53.7711 100.635 48.5304 97.6091C45.7505 96.0042 43.7584 93.3996 42.9211 90.2752C42.0839 87.1507 42.5067 83.8991 44.1115 81.1192L52.8119 66.0497L71.216 76.6761C71.0004 76.7324 70.7874 76.7899 70.5792 76.8494C66.3507 78.0577 64.2046 79.7266 64.2 81.8096ZM101.5 95.1376C101.5 95.4893 100.682 96.6361 96.9441 97.7038C93.5301 98.6792 88.9686 99.2164 84.0999 99.2164C79.2311 99.2164 74.6695 98.6792 71.2555 97.7038C67.518 96.6361 66.6996 95.4893 66.6996 95.1376V85.2293C67.697 85.8104 68.9915 86.3291 70.5795 86.7828C71.5602 87.0631 72.628 87.3081 73.7605 87.5183C73.8155 87.5322 73.8713 87.5426 73.9279 87.5488C76.9583 88.0988 80.456 88.3948 84.1 88.3948C89.1809 88.3948 93.9826 87.8223 97.6205 86.7829C99.2083 86.3293 100.502 85.8108 101.5 85.2297V95.1376ZM101.5 81.8163V81.8197C101.495 82.1736 100.668 83.3122 96.9339 84.3794C93.5131 85.3566 88.9552 85.8949 84.1 85.8949C82.2171 85.8949 80.3804 85.8131 78.6359 85.6569L94.4755 78.6659C95.3446 78.8394 96.169 79.0347 96.9337 79.2532C100.673 80.3214 101.497 81.4621 101.5 81.8143L101.5 81.8163Z" fill="#FFF1F8"/>
</g>
</g>
</g>
<defs>
<filter id="filter0_ddddi_436_1511" x="0" y="-1" width="144" height="144" filterUnits="userSpaceOnUse" color-interpolation-filters="sRGB">
<feFlood flood-opacity="0" result="BackgroundImageFix"/>
<feColorMatrix in="SourceAlpha" type="matrix" values="0 0 0 0 0 0 0 0 0 0 0 0 0 0 0 0 0 0 127 0" result="hardAlpha"/>
<feOffset/>
<feGaussianBlur stdDeviation="10"/>
<feColorMatrix type="matrix" values="0 0 0 0 1 0 0 0 0 0 0 0 0 0 0.478431 0 0 0 0.594351 0"/>
<feBlend mode="normal" in2="BackgroundImageFix" result="effect1_dropShadow_436_1511"/>
<feColorMatrix in="SourceAlpha" type="matrix" values="0 0 0 0 0 0 0 0 0 0 0 0 0 0 0 0 0 0 127 0" result="hardAlpha"/>
<feOffset/>
<feGaussianBlur stdDeviation="3.5"/>
<feColorMatrix type="matrix" values="0 0 0 0 1 0 0 0 0 0 0 0 0 0 0.478431 0 0 0 0.559632 0"/>
<feBlend mode="normal" in2="effect1_dropShadow_436_1511" result="effect2_dropShadow_436_1511"/>
<feColorMatrix in="SourceAlpha" type="matrix" values="0 0 0 0 0 0 0 0 0 0 0 0 0 0 0 0 0 0 127 0" result="hardAlpha"/>
<feOffset/>
<feGaussianBlur stdDeviation="20"/>
<feColorMatrix type="matrix" values="0 0 0 0 1 0 0 0 0 0 0 0 0 0 0.478431 0 0 0 0.466155 0"/>
<feBlend mode="normal" in2="effect2_dropShadow_436_1511" result="effect3_dropShadow_436_1511"/>
<feColorMatrix in="SourceAlpha" type="matrix" values="0 0 0 0 0 0 0 0 0 0 0 0 0 0 0 0 0 0 127 0" result="hardAlpha"/>
<feOffset dx="1"/>
<feGaussianBlur stdDeviation="0.5"/>
<feColorMatrix type="matrix" values="0 0 0 0 1 0 0 0 0 0 0 0 0 0 0.478431 0 0 0 1 0"/>
<feBlend mode="normal" in2="effect3_dropShadow_436_1511" result="effect4_dropShadow_436_1511"/>
<feBlend mode="normal" in="SourceGraphic" in2="effect4_dropShadow_436_1511" result="shape"/>
<feColorMatrix in="SourceAlpha" type="matrix" values="0 0 0 0 0 0 0 0 0 0 0 0 0 0 0 0 0 0 127 0" result="hardAlpha"/>
<feOffset/>
<feGaussianBlur stdDeviation="1"/>
<feComposite in2="hardAlpha" operator="arithmetic" k2="-1" k3="1"/>
<feColorMatrix type="matrix" values="0 0 0 0 1 0 0 0 0 0 0 0 0 0 0.478431 0 0 0 1 0"/>
<feBlend mode="normal" in2="shape" result="effect5_innerShadow_436_1511"/>
</filter>
</defs>
</svg>
