<svg width="144" height="145" viewBox="0 0 144 145" fill="none" xmlns="http://www.w3.org/2000/svg">
<g id="Frame 25" filter="url(#filter0_ddddi_437_1568)">
<g id="Layer 6 copy 4">
<path id="Vector" d="M100.661 46.7723L78.6283 40.1954C78.0405 40.0193 77.4238 39.9614 76.8137 40.025C76.2036 40.0886 75.612 40.2723 75.0727 40.5658C74.5334 40.8592 74.0571 41.2566 73.6709 41.7351C73.2848 42.2137 72.9965 42.764 72.8225 43.3545L67.4763 61.4079C67.1513 61.2466 66.8075 61.1269 66.4529 61.0514V59.5487C67.0346 59.4916 67.5745 59.2198 67.968 58.786C68.3615 58.3521 68.5807 57.7871 68.5831 57.2003V52.175C68.5831 51.5466 68.3345 50.944 67.8919 50.4996C67.4493 50.0553 66.8491 49.8057 66.2232 49.8057H47.1841C46.5594 49.8075 45.9609 50.0579 45.5199 50.5021C45.0788 50.9462 44.8311 51.5478 44.8311 52.175V57.2003C44.832 57.7876 45.0506 58.3534 45.4444 58.7876C45.8383 59.2218 46.379 59.4931 46.9613 59.5487V61.0514C45.9924 61.2507 45.1288 61.7973 44.5318 62.589L41.2182 67.0272C40.4302 68.0846 40.003 69.369 40 70.6896V100.366C40 101.595 40.4863 102.774 41.3518 103.643C42.2173 104.512 43.3913 105 44.6153 105H68.7989C69.7925 104.998 70.759 104.675 71.5553 104.078C72.3515 103.481 72.935 102.643 73.2193 101.687L83.5012 104.755C83.9302 104.885 84.3758 104.951 84.8238 104.951C85.8312 104.951 86.8118 104.625 87.6195 104.02C88.4273 103.416 89.0191 102.566 89.3069 101.596L103.807 52.5944C103.982 52.0047 104.038 51.3862 103.975 50.7745C103.911 50.1627 103.728 49.5695 103.435 49.0289C103.143 48.4882 102.748 48.0106 102.272 47.6234C101.796 47.2363 101.248 46.947 100.661 46.7723ZM49.0497 59.5697H64.3646V60.9675H49.0497V59.5697ZM46.9195 57.2003V52.175C46.9186 52.1396 46.9248 52.1043 46.9376 52.0712C46.9505 52.0382 46.9699 52.0081 46.9945 51.9827C47.0192 51.9573 47.0486 51.9371 47.0812 51.9233C47.1138 51.9095 47.1487 51.9024 47.1841 51.9024H66.2232C66.2591 51.9015 66.2949 51.9079 66.3282 51.9212C66.3616 51.9346 66.3919 51.9546 66.4173 51.9801C66.4427 52.0056 66.4627 52.0361 66.476 52.0696C66.4893 52.1031 66.4957 52.139 66.4947 52.175V57.2003C66.4957 57.2364 66.4893 57.2722 66.476 57.3058C66.4627 57.3393 66.4427 57.3697 66.4173 57.3952C66.3919 57.4207 66.3616 57.4407 66.3282 57.4541C66.2949 57.4675 66.2591 57.4739 66.2232 57.4729H47.1841C47.1487 57.4729 47.1138 57.4658 47.0812 57.452C47.0486 57.4382 47.0192 57.4181 46.9945 57.3926C46.9699 57.3672 46.9505 57.3371 46.9376 57.3041C46.9248 57.2711 46.9186 57.2358 46.9195 57.2003ZM42.0884 70.6896C42.0958 69.8299 42.3763 68.995 42.8889 68.3063L46.2025 63.8681C46.3841 63.625 46.6195 63.4278 46.8902 63.2919C47.1608 63.156 47.4593 63.0853 47.7619 63.0853H65.6385C65.9409 63.0864 66.239 63.1576 66.5094 63.2934C66.7799 63.4291 67.0155 63.6258 67.1978 63.8681L70.5114 68.3063C71.0283 69.0007 71.3089 69.8437 71.3119 70.7106V72.1084H42.0745L42.0884 70.6896ZM74.542 77.1757C74.6411 77.3529 74.7041 77.5481 74.7272 77.75C74.7504 77.9519 74.7333 78.1564 74.6769 78.3515C74.6206 78.5467 74.526 78.7287 74.3989 78.8868C74.2717 79.0449 74.1145 79.176 73.9363 79.2725C73.773 79.3576 73.5965 79.4143 73.4142 79.4402V75.1068L74.542 77.1757ZM42.0884 74.1982H71.3259V96.6688H42.0884V74.1982ZM71.3259 100.366C71.324 101.038 71.0572 101.683 70.5837 102.158C70.1102 102.633 69.4685 102.901 68.7989 102.903H44.6153C43.9457 102.901 43.304 102.633 42.8305 102.158C42.357 101.683 42.0902 101.038 42.0884 100.366V98.7656H71.3259V100.366ZM101.837 52.0003L87.302 101.002C87.2055 101.328 87.0459 101.632 86.8323 101.896C86.6186 102.16 86.3552 102.379 86.0571 102.541C85.759 102.703 85.4321 102.804 85.095 102.838C84.758 102.873 84.4174 102.84 84.0929 102.742L73.4142 99.5553V81.509C74.0229 81.4812 74.6143 81.2978 75.1326 80.9763C75.6508 80.6547 76.0787 80.2056 76.3757 79.6715C76.6727 79.1375 76.829 78.5361 76.8297 77.9244C76.8304 77.3127 76.6755 76.711 76.3798 76.1762L74.89 73.4154C74.5549 72.7894 74.0409 72.2783 73.4142 71.9477V70.6896C73.4122 69.3689 72.9849 68.0842 72.196 67.0272L69.1887 63.0014L74.8274 43.9486C74.9273 43.6276 75.0894 43.3296 75.3045 43.0717C75.5195 42.8138 75.7832 42.6011 76.0804 42.4459C76.3778 42.2831 76.7043 42.1807 77.0412 42.1448C77.378 42.1088 77.7186 42.1399 78.0435 42.2363L100.083 48.8132C100.735 49.0048 101.285 49.4473 101.614 50.0442C101.942 50.6411 102.022 51.3441 101.837 52.0003ZM95.7183 53.1745C95.4977 52.7477 95.1948 52.3694 94.8271 52.0615C94.4593 51.7535 94.0342 51.5222 93.5765 51.3811C93.1188 51.2399 92.6376 51.1916 92.1611 51.2391C91.6847 51.2866 91.2224 51.4289 90.8013 51.6577C90.3801 51.8866 90.0086 52.1973 89.7084 52.5718C89.4082 52.9463 89.1852 53.3771 89.0526 53.8391C88.92 54.301 88.8803 54.7848 88.9359 55.2623C88.9915 55.7398 89.1413 56.2014 89.3765 56.6202L90.8662 59.4159C91.0754 59.8642 91.374 60.2647 91.7434 60.5926C92.1129 60.9205 92.5454 61.1689 93.0143 61.3223C93.4831 61.4757 93.9783 61.5309 94.4693 61.4846C94.9602 61.4382 95.4365 61.2912 95.8686 61.0527C96.3007 60.8143 96.6795 60.4893 96.9816 60.098C97.2837 59.7067 97.5027 59.2574 97.625 58.7777C97.7472 58.2981 97.7702 57.7984 97.6925 57.3095C97.6148 56.8206 97.4381 56.3529 97.1732 55.9352L95.7183 53.1745ZM94.7646 59.0035C94.5877 59.1028 94.3928 59.1656 94.1915 59.1884C93.9901 59.2112 93.7862 59.1934 93.5918 59.1361C93.3973 59.0789 93.2162 58.9832 93.059 58.8549C92.9018 58.7265 92.7716 58.5679 92.6762 58.3885L91.1864 55.5928C91.0206 55.2403 90.9957 54.8374 91.1167 54.4671C91.2377 54.0967 91.4955 53.7869 91.8371 53.6016C92.1786 53.4162 92.578 53.3694 92.9529 53.4707C93.3278 53.5719 93.6498 53.8136 93.8526 54.146L95.3423 56.9068C95.4422 57.0841 95.5055 57.2798 95.5287 57.4822C95.5519 57.6846 95.5344 57.8896 95.4773 58.0851C95.4202 58.2806 95.3246 58.4626 95.1962 58.6203C95.0678 58.7781 94.9092 58.9084 94.7298 59.0035H94.7646ZM92.1193 65.2939C91.6632 64.4495 90.8918 63.8217 89.9747 63.5484C89.0576 63.2751 88.0699 63.3788 87.229 63.8366C86.388 64.2945 85.7626 65.069 85.4904 65.9898C85.2182 66.9106 85.3215 67.9023 85.7775 68.7466L87.2185 71.5353C87.4426 71.9529 87.7464 72.3219 88.1127 72.6214C88.479 72.9209 88.9005 73.1449 89.3532 73.2805C89.8058 73.4162 90.2807 73.461 90.7505 73.4121C91.2204 73.3633 91.676 73.2219 92.0914 72.9961C92.5067 72.7705 92.8736 72.465 93.1712 72.097C93.4687 71.7289 93.6911 71.3056 93.8256 70.8512C93.9601 70.3968 94.004 69.9203 93.9549 69.4488C93.9058 68.9773 93.7646 68.5202 93.5394 68.1036L92.1193 65.2939ZM91.8965 70.2213C91.7876 70.6001 91.5385 70.9226 91.2004 71.123C91.0235 71.2222 90.8286 71.285 90.6273 71.3078C90.4259 71.3306 90.222 71.3128 90.0276 71.2555C89.8332 71.1983 89.652 71.1027 89.4948 70.9743C89.3376 70.8459 89.2075 70.6874 89.112 70.5079L87.6223 67.7471C87.5234 67.5695 87.4608 67.3739 87.4382 67.1717C87.4155 66.9696 87.4332 66.7649 87.4902 66.5696C87.5473 66.3744 87.6425 66.1926 87.7703 66.0347C87.8982 65.8769 88.0561 65.7462 88.2349 65.6504C88.4494 65.5356 88.6879 65.4734 88.931 65.4686C89.0794 65.4689 89.227 65.4901 89.3695 65.5315C89.558 65.5823 89.7344 65.6703 89.8886 65.7903C90.0428 65.9103 90.1716 66.0599 90.2676 66.2305L91.7642 69.0262C91.864 69.2121 91.9242 69.4169 91.941 69.6275C91.9578 69.838 91.9308 70.0498 91.8617 70.2493L91.8965 70.2213ZM88.4924 77.4692C88.2666 77.0511 87.961 76.6818 87.5931 76.3823C87.2251 76.0828 86.802 75.859 86.3479 75.7237C85.8938 75.5884 85.4176 75.5442 84.9464 75.5937C84.4753 75.6431 84.0185 75.7853 83.6021 76.012C83.1857 76.2387 82.8179 76.5455 82.5196 76.9149C82.2213 77.2844 81.9984 77.7092 81.8636 78.1651C81.7288 78.6211 81.6848 79.0992 81.734 79.5722C81.7833 80.0452 81.9249 80.5038 82.1507 80.9219L83.6404 83.7176C83.868 84.1371 84.1757 84.5074 84.5459 84.8075C84.9161 85.1076 85.3415 85.3315 85.7979 85.4665C86.2542 85.6015 86.7326 85.6449 87.2057 85.5943C87.6788 85.5436 88.1373 85.4 88.5551 85.1714C88.9729 84.9429 89.3417 84.6339 89.6406 84.2623C89.9394 83.8906 90.1625 83.4635 90.2969 83.0053C90.4314 82.5471 90.4746 82.0668 90.4242 81.5918C90.3738 81.1168 90.2307 80.6564 90.003 80.237L88.4924 77.4692ZM87.5318 83.2983C87.3553 83.3995 87.1604 83.4639 86.9586 83.4877C86.7568 83.5115 86.5523 83.4941 86.3573 83.4367C86.1623 83.3793 85.9809 83.2829 85.8238 83.1535C85.6668 83.024 85.5374 82.8641 85.4434 82.6832L83.9467 79.9225C83.8488 79.7446 83.787 79.5491 83.7648 79.3471C83.7426 79.1452 83.7605 78.9408 83.8175 78.7458C83.8745 78.5508 83.9693 78.3691 84.0967 78.2112C84.224 78.0533 84.3812 77.9222 84.5593 77.8257C84.7742 77.7119 85.0125 77.6497 85.2554 77.644C85.4016 77.6438 85.547 77.6649 85.687 77.7069C86.0671 77.814 86.3913 78.0644 86.592 78.4058L88.0817 81.2015C88.184 81.3751 88.2509 81.5674 88.2786 81.7671C88.3063 81.9669 88.2943 82.1702 88.2431 82.3653C88.1919 82.5603 88.1027 82.7432 87.9806 82.9034C87.8585 83.0635 87.7059 83.1978 87.5318 83.2983ZM84.8934 89.5886C84.4371 88.7493 83.6685 88.1254 82.7555 87.853C81.8426 87.5806 80.8593 87.682 80.0205 88.1349C79.1834 88.5919 78.5604 89.363 78.2878 90.2798C78.0152 91.1965 78.1151 92.1843 78.5656 93.0274L80.0553 95.8231C80.2809 96.2406 80.5865 96.6093 80.9544 96.908C81.3224 97.2067 81.7455 97.4294 82.1994 97.5634C82.6588 97.7064 83.1423 97.7547 83.6208 97.7055C84.0993 97.6562 84.5629 97.5104 84.9839 97.2768C85.8185 96.8173 86.4388 96.0456 86.7099 95.1295C86.981 94.2134 86.8811 93.2269 86.4319 92.3843L84.8934 89.5886ZM84.6707 94.5161C84.5657 94.8968 84.3156 95.2207 83.9745 95.4177C83.7983 95.5182 83.6038 95.5822 83.4025 95.606C83.2012 95.6297 82.9972 95.6128 82.8026 95.5561C82.6079 95.4994 82.4265 95.4042 82.2691 95.276C82.1117 95.1478 81.9815 94.9892 81.8862 94.8096L80.3964 92.0139C80.2976 91.8363 80.235 91.6407 80.2123 91.4385C80.1897 91.2363 80.2074 91.0317 80.2644 90.8364C80.3214 90.6412 80.4167 90.4593 80.5445 90.3015C80.6724 90.1437 80.8303 90.013 81.009 89.9171C81.2239 89.8032 81.4622 89.7409 81.7052 89.7354C81.9875 89.7428 82.2622 89.8291 82.4983 89.9847C82.7344 90.1403 82.9226 90.3589 83.0417 90.6161L84.5384 93.4118C84.7233 93.7589 84.7706 94.1634 84.6707 94.544V94.5161ZM77.229 55.3272C77.4536 55.7463 77.7588 56.1165 78.1268 56.4164C78.4948 56.7164 78.9184 56.94 79.3731 57.0745C79.8326 57.2175 80.316 57.2658 80.7945 57.2165C81.273 57.1673 81.7367 57.0215 82.1576 56.7879C82.9936 56.3297 83.6151 55.5581 83.8863 54.6414C84.1576 53.7248 84.0567 52.7376 83.6056 51.8954L82.1159 49.0997C81.6599 48.2554 80.8884 47.6275 79.9713 47.3542C79.0542 47.0809 78.0665 47.1846 77.2256 47.6425C76.3846 48.1003 75.7592 48.8748 75.487 49.7956C75.2148 50.7164 75.3181 51.7081 75.7741 52.5524L77.229 55.3272ZM78.1688 49.4981C78.3837 49.3842 78.622 49.3219 78.8649 49.3164C79.1504 49.3058 79.433 49.3772 79.6795 49.522C79.9261 49.6668 80.1265 49.8791 80.2572 50.1341L81.7539 52.9299C81.8639 53.1083 81.936 53.3076 81.9657 53.5154C81.9953 53.7231 81.9819 53.9348 81.9263 54.137C81.8707 54.3393 81.7741 54.5279 81.6425 54.691C81.5109 54.854 81.3472 54.988 81.1616 55.0845C80.976 55.1811 80.7726 55.2381 80.564 55.252C80.3555 55.2659 80.1463 55.2364 79.9496 55.1654C79.753 55.0943 79.573 54.9832 79.4211 54.8391C79.2692 54.6949 79.1486 54.5209 79.0668 54.3277L77.5771 51.5669C77.3846 51.2133 77.3388 50.7978 77.4496 50.4105C77.5604 50.0232 77.8188 49.6953 78.1688 49.4981ZM78.503 68.9353C79.3401 68.4783 79.9631 67.7072 80.2357 66.7904C80.5083 65.8737 80.4084 64.8859 79.9579 64.0428L78.4682 61.2471C78.0121 60.4028 77.2407 59.7749 76.3236 59.5016C75.4065 59.2283 74.4188 59.332 73.5778 59.7898C72.7369 60.2477 72.1115 61.0222 71.8393 61.943C71.5671 62.8638 71.6704 63.8555 72.1264 64.6998L73.6161 67.4955C73.8411 67.9136 74.1465 68.2826 74.5145 68.5814C74.8825 68.8801 75.306 69.1025 75.7602 69.2359C76.0941 69.3381 76.4414 69.3899 76.7905 69.3896C77.3891 69.3896 77.978 69.2381 78.503 68.9493V68.9353ZM78.2593 66.2095C78.2037 66.4021 78.1104 66.5816 77.9849 66.7376C77.8594 66.8936 77.7042 67.023 77.5284 67.1181C77.1747 67.3093 76.7599 67.352 76.375 67.2367C75.99 67.1214 75.6663 66.8576 75.4748 66.503L73.9781 63.7073C73.8835 63.5312 73.8243 63.3381 73.804 63.139C73.7837 62.94 73.8026 62.7388 73.8598 62.5471C73.9164 62.3553 74.0102 62.1765 74.1357 62.0211C74.2612 61.8656 74.4159 61.7365 74.5911 61.6411C74.7663 61.5457 74.9585 61.4859 75.1567 61.465C75.3549 61.4442 75.5552 61.4628 75.7463 61.5197C76.1323 61.6353 76.4575 61.899 76.6513 62.2536L78.141 65.0493C78.2375 65.2247 78.2977 65.4179 78.318 65.6173C78.3384 65.8166 78.3184 66.0181 78.2593 66.2095ZM65.4088 81.4741H60.6472V76.6934C60.6472 76.4154 60.5372 76.1487 60.3414 75.9521C60.1456 75.7555 59.88 75.645 59.603 75.645H53.8043C53.5273 75.645 53.2617 75.7555 53.0659 75.9521C52.8701 76.1487 52.7601 76.4154 52.7601 76.6934V81.4741H48.0055C47.7286 81.4741 47.463 81.5845 47.2671 81.7811C47.0713 81.9778 46.9613 82.2444 46.9613 82.5225V88.3445C46.9613 88.6226 47.0713 88.8893 47.2671 89.0859C47.463 89.2825 47.7286 89.3929 48.0055 89.3929H52.7601V94.1666C52.7601 94.4447 52.8701 94.7113 53.0659 94.9079C53.2617 95.1046 53.5273 95.215 53.8043 95.215H59.603C59.88 95.215 60.1456 95.1046 60.3414 94.9079C60.5372 94.7113 60.6472 94.4447 60.6472 94.1666V89.3929H65.4088C65.6857 89.3929 65.9513 89.2825 66.1471 89.0859C66.3429 88.8893 66.4529 88.6226 66.4529 88.3445V82.5225C66.4529 82.2444 66.3429 81.9778 66.1471 81.7811C65.9513 81.5845 65.6857 81.4741 65.4088 81.4741ZM64.3646 87.2962H59.603C59.3261 87.2962 59.0605 87.4066 58.8647 87.6032C58.6688 87.7998 58.5588 88.0665 58.5588 88.3445V93.1182H54.8485V88.3445C54.8485 88.0665 54.7384 87.7998 54.5426 87.6032C54.3468 87.4066 54.0812 87.2962 53.8043 87.2962H49.0497V83.5709H53.8043C54.0812 83.5709 54.3468 83.4604 54.5426 83.2638C54.7384 83.0672 54.8485 82.8005 54.8485 82.5225V77.7418H58.5588V82.5225C58.5588 82.8005 58.6688 83.0672 58.8647 83.2638C59.0605 83.4604 59.3261 83.5709 59.603 83.5709H64.3646V87.2962ZM61.7401 55.2922C61.7401 55.0142 61.8502 54.7475 62.046 54.5509C62.2418 54.3543 62.5074 54.2438 62.7843 54.2438H63.8842C64.1612 54.2438 64.4268 54.3543 64.6226 54.5509C64.8184 54.7475 64.9284 55.0142 64.9284 55.2922C64.9284 55.5703 64.8184 55.837 64.6226 56.0336C64.4268 56.2302 64.1612 56.3406 63.8842 56.3406H62.7843C62.5074 56.3406 62.2418 56.2302 62.046 56.0336C61.8502 55.837 61.7401 55.5703 61.7401 55.2922ZM52.0291 55.2922C52.0291 55.0142 52.1391 54.7475 52.335 54.5509C52.5308 54.3543 52.7964 54.2438 53.0733 54.2438H59.2062C59.4832 54.2438 59.7488 54.3543 59.9446 54.5509C60.1404 54.7475 60.2504 55.0142 60.2504 55.2922C60.2504 55.5703 60.1404 55.837 59.9446 56.0336C59.7488 56.2302 59.4832 56.3406 59.2062 56.3406H53.1081C52.9681 56.3453 52.8286 56.3217 52.6978 56.2711C52.5671 56.2205 52.4478 56.144 52.3472 56.0462C52.2465 55.9484 52.1664 55.8312 52.1118 55.7017C52.0572 55.5721 52.0291 55.4329 52.0291 55.2922Z" fill="white"/>
</g>
</g>
<defs>
<filter id="filter0_ddddi_437_1568" x="0" y="0" width="144" height="145" filterUnits="userSpaceOnUse" color-interpolation-filters="sRGB">
<feFlood flood-opacity="0" result="BackgroundImageFix"/>
<feColorMatrix in="SourceAlpha" type="matrix" values="0 0 0 0 0 0 0 0 0 0 0 0 0 0 0 0 0 0 127 0" result="hardAlpha"/>
<feOffset/>
<feGaussianBlur stdDeviation="10"/>
<feColorMatrix type="matrix" values="0 0 0 0 1 0 0 0 0 0 0 0 0 0 0.478431 0 0 0 0.594351 0"/>
<feBlend mode="normal" in2="BackgroundImageFix" result="effect1_dropShadow_437_1568"/>
<feColorMatrix in="SourceAlpha" type="matrix" values="0 0 0 0 0 0 0 0 0 0 0 0 0 0 0 0 0 0 127 0" result="hardAlpha"/>
<feOffset/>
<feGaussianBlur stdDeviation="3.5"/>
<feColorMatrix type="matrix" values="0 0 0 0 1 0 0 0 0 0 0 0 0 0 0.478431 0 0 0 0.559632 0"/>
<feBlend mode="normal" in2="effect1_dropShadow_437_1568" result="effect2_dropShadow_437_1568"/>
<feColorMatrix in="SourceAlpha" type="matrix" values="0 0 0 0 0 0 0 0 0 0 0 0 0 0 0 0 0 0 127 0" result="hardAlpha"/>
<feOffset/>
<feGaussianBlur stdDeviation="20"/>
<feColorMatrix type="matrix" values="0 0 0 0 1 0 0 0 0 0 0 0 0 0 0.478431 0 0 0 0.466155 0"/>
<feBlend mode="normal" in2="effect2_dropShadow_437_1568" result="effect3_dropShadow_437_1568"/>
<feColorMatrix in="SourceAlpha" type="matrix" values="0 0 0 0 0 0 0 0 0 0 0 0 0 0 0 0 0 0 127 0" result="hardAlpha"/>
<feOffset dx="1"/>
<feGaussianBlur stdDeviation="0.5"/>
<feColorMatrix type="matrix" values="0 0 0 0 1 0 0 0 0 0 0 0 0 0 0.478431 0 0 0 1 0"/>
<feBlend mode="normal" in2="effect3_dropShadow_437_1568" result="effect4_dropShadow_437_1568"/>
<feBlend mode="normal" in="SourceGraphic" in2="effect4_dropShadow_437_1568" result="shape"/>
<feColorMatrix in="SourceAlpha" type="matrix" values="0 0 0 0 0 0 0 0 0 0 0 0 0 0 0 0 0 0 127 0" result="hardAlpha"/>
<feOffset/>
<feGaussianBlur stdDeviation="1"/>
<feComposite in2="hardAlpha" operator="arithmetic" k2="-1" k3="1"/>
<feColorMatrix type="matrix" values="0 0 0 0 1 0 0 0 0 0 0 0 0 0 0.478431 0 0 0 1 0"/>
<feBlend mode="normal" in2="shape" result="effect5_innerShadow_437_1568"/>
</filter>
</defs>
</svg>
